<?xml version="1.0" standalone="no"?>
<!DOCTYPE svg PUBLIC "-//W3C//DTD SVG 20010904//EN"
 "http://www.w3.org/TR/2001/REC-SVG-20010904/DTD/svg10.dtd">
<svg version="1.0" xmlns="http://www.w3.org/2000/svg"
 width="1280.000000pt" height="900.000000pt" viewBox="0 0 1280.000000 1280.000000"
 preserveAspectRatio="xMidYMid meet">
<metadata>
Created by potrace 1.15, written by Peter Selinger 2001-2017
</metadata>
<g transform="translate(0.000000,1280.000000) scale(0.100000,-0.100000)"
fill="#3498db" stroke="none">
<path d="M5985 12790 c-896 -60 -1642 -253 -2380 -615 -1105 -542 -2134 -1514
-2766 -2613 -637 -1106 -907 -2443 -773 -3827 138 -1430 707 -2659 1725 -3727
841 -883 1847 -1487 2953 -1772 1185 -307 2572 -262 3711 119 1086 364 2065
1047 2865 2000 670 798 1119 1727 1319 2730 133 665 163 1402 85 2110 -121
1104 -522 2125 -1180 3000 -420 559 -955 1082 -1512 1477 -902 641 -1889 999
-3042 1104 -205 18 -811 27 -1005 14z m444 -734 c-3 -3 -48 -14 -102 -26 -352
-76 -746 -256 -1080 -492 -657 -465 -1007 -971 -1146 -1656 -52 -256 -65 -403
-65 -742 0 -320 10 -446 56 -660 136 -647 486 -1136 1118 -1562 150 -102 342
-198 560 -281 222 -84 338 -120 955 -292 551 -154 828 -265 1125 -454 58 -37
142 -89 188 -116 253 -150 532 -411 709 -660 245 -347 411 -764 473 -1185 32
-223 30 -583 -5 -840 -116 -859 -532 -1453 -1270 -1815 -421 -207 -873 -322
-1485 -377 -229 -20 -849 -17 -1030 5 -719 90 -1346 323 -1975 735 -539 352
-1110 888 -1503 1410 -791 1050 -1178 2291 -1122 3602 29 669 144 1228 377
1820 440 1121 1358 2203 2400 2828 756 454 1574 698 2518 751 170 10 310 13
304 7z m94 -1930 c402 -119 641 -468 599 -877 -23 -227 -116 -406 -287 -551
-173 -147 -432 -220 -667 -189 -344 46 -632 302 -704 626 -24 107 -24 285 0
380 72 283 323 541 598 614 109 29 113 30 248 26 98 -3 144 -9 213 -29z"/>
<path d="M6220 4300 c-215 -27 -369 -106 -526 -272 -140 -150 -210 -316 -221
-528 -9 -186 26 -344 108 -482 250 -424 794 -555 1193 -287 97 65 233 208 290
305 163 278 150 634 -32 901 -77 112 -224 234 -359 294 -125 57 -316 86 -453
69z"/>
</g>
</svg>
