<?xml version="1.0" standalone="no"?>
<!DOCTYPE svg PUBLIC "-//W3C//DTD SVG 20010904//EN"
 "http://www.w3.org/TR/2001/REC-SVG-20010904/DTD/svg10.dtd">
<svg version="1.0" xmlns="http://www.w3.org/2000/svg"
 width="1098.000000pt" height="900.000000pt" viewBox="0 0 1098.000000 1280.000000"
 preserveAspectRatio="xMidYMid meet">
<metadata>
Created by potrace 1.15, written by Peter Selinger 2001-2017
</metadata>
<g transform="translate(0.000000,1280.000000) scale(0.100000,-0.100000)"
fill="#000000" stroke="none">
<path d="M3209 12785 c-56 -18 -132 -83 -162 -139 -28 -53 -31 -194 -5 -241 9
-16 163 -246 342 -509 180 -263 325 -480 324 -481 -2 -1 -41 -24 -88 -50 -852
-483 -1414 -1287 -1516 -2167 l-6 -58 3392 0 3392 0 -6 53 c-25 204 -78 428
-144 607 -97 263 -268 564 -450 790 -161 199 -417 437 -647 601 -80 56 -332
213 -357 221 -5 2 139 222 321 488 201 295 337 504 347 534 64 187 -95 383
-293 363 -54 -6 -139 -45 -170 -79 -10 -11 -178 -255 -373 -541 -276 -405
-360 -522 -375 -521 -11 1 -92 23 -180 48 -694 203 -1436 203 -2130 0 -88 -25
-169 -47 -179 -48 -15 -1 -103 121 -375 521 -196 287 -364 530 -374 541 -60
66 -194 97 -288 67z"/>
<path d="M10145 8624 c-212 -30 -354 -101 -490 -246 -111 -118 -171 -237 -201
-398 -20 -111 -20 -3219 0 -3330 48 -265 231 -491 477 -589 108 -43 181 -54
316 -49 194 7 337 68 482 203 116 109 191 238 233 400 10 40 13 383 13 1705 0
1576 -1 1658 -18 1720 -95 335 -371 563 -707 583 -41 3 -88 3 -105 1z"/>
<path d="M580 8600 c-218 -58 -402 -210 -499 -413 -82 -171 -75 -4 -79 -1827
-2 -1101 1 -1647 8 -1693 23 -151 95 -298 202 -412 151 -162 340 -245 558
-245 205 0 384 74 531 220 128 127 200 265 228 440 7 44 11 587 11 1650 -1
1707 1 1657 -53 1802 -39 107 -85 176 -182 273 -101 102 -182 153 -300 192
-112 36 -313 43 -425 13z"/>
<path d="M2102 5753 l3 -2828 26 -66 c14 -37 38 -88 54 -115 42 -74 149 -174
230 -215 125 -65 156 -69 578 -69 l377 0 0 -862 c0 -516 4 -891 10 -932 53
-364 349 -641 710 -663 367 -22 687 218 787 589 15 57 17 157 20 966 l4 902
589 0 589 0 3 -902 c4 -889 4 -904 25 -979 102 -361 424 -598 783 -576 188 12
346 83 481 217 130 129 201 266 228 438 7 47 11 361 11 936 l0 866 378 0 c423
0 454 4 576 67 98 51 202 156 250 254 72 148 66 -110 66 2996 l0 2803 -3390 0
-3390 0 2 -2827z"/>
</g>
</svg>
