<?xml version="1.0" standalone="no"?>
<!DOCTYPE svg PUBLIC "-//W3C//DTD SVG 20010904//EN"
 "http://www.w3.org/TR/2001/REC-SVG-20010904/DTD/svg10.dtd">
<svg version="1.0" xmlns="http://www.w3.org/2000/svg"
 width="1280.000000pt" height="500.000000pt" viewBox="0 0 1280.000000 1124.000000"
 preserveAspectRatio="xMidYMid meet">
<metadata>
Created by potrace 1.15, written by Peter Selinger 2001-2017
</metadata>
<g transform="translate(0.000000,1124.000000) scale(0.100000,-0.100000)"
fill="#3498db" stroke="none">
<path d="M9090 11120 l0 -120 -305 0 -305 0 0 -35 0 -35 335 0 335 0 0 149 c0
146 0 149 -22 155 -13 3 -26 6 -30 6 -5 0 -8 -54 -8 -120z"/>
<path d="M8480 10766 l0 -36 248 0 c136 0 265 -5 287 -10 71 -16 105 -85 74
-153 -22 -49 -35 -52 -329 -57 l-275 -5 -3 -38 -3 -38 283 3 c264 3 285 4 318
24 19 11 45 36 58 55 21 30 23 44 20 111 -3 86 -20 118 -79 153 -31 19 -55 20
-316 23 l-283 3 0 -35z"/>
<path d="M690 10440 l0 -41 330 3 c181 2 326 0 322 -3 -4 -3 -152 -63 -329
-133 l-323 -128 0 -54 0 -54 405 0 405 0 0 40 0 40 -334 2 -334 3 334 130 334
130 0 53 0 52 -405 0 -405 0 0 -40z"/>
<path d="M8482 10198 l3 -153 333 -3 332 -2 0 40 0 40 -155 0 -155 0 0 110 0
110 -35 0 -35 0 0 -110 0 -110 -110 0 -110 0 0 115 0 115 -35 0 -36 0 3 -152z"/>
<path d="M4940 9971 l0 -38 150 -59 c82 -32 150 -61 150 -64 0 -3 -68 -31
-150 -63 l-150 -59 0 -38 0 -39 33 14 c17 7 101 43 185 79 l154 66 129 0 129
0 0 35 0 35 -119 0 -120 0 -195 84 -196 84 0 -37z"/>
<path d="M8900 9934 c-51 -22 -87 -61 -127 -137 -46 -87 -81 -117 -137 -117
-63 0 -96 29 -96 84 0 53 15 73 65 90 36 13 40 18 40 48 0 32 -1 33 -35 30
-84 -8 -133 -68 -133 -162 0 -119 96 -192 211 -161 58 16 96 52 138 132 20 38
52 83 71 99 29 26 42 30 89 30 48 0 59 -4 85 -29 58 -58 24 -162 -57 -177 -32
-6 -34 -9 -34 -45 0 -38 0 -38 33 -32 100 18 152 89 145 196 -3 46 -10 72 -27
96 -45 63 -153 89 -231 55z"/>
<path d="M1085 9841 l-390 -98 0 -59 0 -58 220 -53 c121 -29 301 -73 400 -96
l180 -44 3 40 c2 21 1 41 -2 44 -3 3 -58 18 -123 33 l-118 27 -3 106 c-3 104
-2 107 20 112 13 3 68 15 123 28 l100 23 3 47 c2 34 -1 47 -10 46 -7 -1 -188
-45 -403 -98z m85 -156 c0 -47 -3 -85 -7 -85 -11 0 -345 71 -363 77 -12 4 312
87 358 92 9 1 12 -22 12 -84z"/>
<path d="M5510 9455 l0 -115 -120 0 -120 0 0 105 0 105 -30 0 -29 0 -3 -102
-3 -103 -102 -3 -103 -3 0 111 0 110 -30 0 -30 0 0 -145 0 -145 315 0 315 0 0
150 0 150 -30 0 -30 0 0 -115z"/>
<path d="M8877 9489 c-36 -19 -70 -64 -131 -171 -41 -72 -103 -96 -165 -63
-33 17 -41 33 -41 84 0 43 16 61 73 84 31 14 37 21 37 46 0 26 -4 31 -24 31
-132 0 -201 -172 -111 -278 34 -41 75 -55 143 -50 75 5 108 29 152 108 63 110
87 138 129 151 88 26 161 -17 161 -94 0 -56 -27 -92 -81 -108 -35 -11 -39 -15
-39 -46 0 -28 4 -33 23 -33 34 0 108 41 131 73 17 23 21 44 21 107 0 87 -13
116 -75 158 -44 30 -147 30 -203 1z"/>
<path d="M690 9295 l0 -45 405 0 405 0 0 45 0 45 -405 0 -405 0 0 -45z"/>
<path d="M9350 9075 l0 -245 65 0 65 0 0 85 0 85 350 0 350 0 0 75 0 75 -350
0 -350 0 0 85 0 85 -65 0 -65 0 0 -245z"/>
<path d="M4940 9120 l0 -30 256 -2 255 -3 -255 -100 -256 -100 0 -42 0 -43
315 0 315 0 0 30 0 30 -261 2 -261 3 259 100 258 100 3 43 3 42 -315 0 -316 0
0 -30z"/>
<path d="M1280 9089 c0 -46 2 -49 25 -49 35 0 102 -35 115 -61 16 -28 15 -91
-1 -117 -38 -61 -150 -86 -361 -80 -139 4 -158 6 -210 30 -82 38 -106 92 -73
162 17 35 69 66 110 66 23 0 25 4 25 45 0 42 -2 45 -26 45 -202 0 -279 -261
-111 -376 83 -56 260 -83 436 -65 127 12 205 38 248 83 41 43 53 76 53 147 0
109 -69 189 -182 210 l-48 8 0 -48z"/>
<path d="M9090 8965 l0 -125 -130 0 -130 0 0 115 0 115 -30 0 -29 0 -3 -112
-3 -113 -107 -3 -108 -3 0 121 0 121 -32 -3 -33 -3 -3 -152 -3 -153 336 0 335
0 0 154 c0 131 -2 155 -16 160 -42 16 -44 12 -44 -119z"/>
<path d="M9350 8684 l0 -65 286 3 c212 2 278 0 257 -8 -15 -6 -144 -53 -285
-104 l-258 -94 0 -83 0 -83 415 0 415 0 0 65 0 65 -297 1 -298 0 298 106 297
106 0 78 0 79 -415 0 -415 0 0 -66z"/>
<path d="M7600 8686 l0 -34 143 -57 c78 -31 143 -58 145 -60 2 -1 -62 -29
-142 -61 l-146 -58 0 -37 0 -37 184 79 184 79 116 0 116 0 0 30 0 30 -112 0
-113 0 -185 80 c-101 44 -185 80 -187 80 -2 0 -3 -15 -3 -34z"/>
<path d="M5131 8689 c-75 -10 -147 -43 -175 -81 -27 -37 -33 -125 -12 -166 43
-84 144 -116 346 -110 124 3 140 6 193 32 74 36 97 71 97 147 0 105 -66 159
-220 178 -94 12 -136 12 -229 0z m240 -73 c59 -4 115 -27 136 -55 21 -27 15
-79 -11 -106 -42 -42 -122 -58 -270 -53 -110 3 -138 8 -173 26 -23 12 -47 31
-53 41 -25 47 -3 99 53 128 32 16 160 31 227 26 19 -1 60 -4 91 -7z"/>
<path d="M8563 8650 c-104 -47 -121 -194 -32 -275 50 -45 121 -65 249 -72 183
-10 310 25 357 96 28 42 31 126 6 178 -20 43 -79 83 -132 90 -41 6 -41 6 -41
-28 0 -32 3 -35 50 -52 83 -29 103 -96 47 -152 -41 -41 -102 -55 -247 -55
-145 0 -206 14 -247 55 -43 43 -44 85 -5 125 16 16 45 32 65 35 34 7 37 10 37
41 0 32 -2 34 -32 34 -18 0 -52 -9 -75 -20z"/>
<path d="M692 8508 l3 -43 403 -3 402 -2 0 45 0 45 -406 0 -405 0 3 -42z"/>
<path d="M8140 8305 l0 -105 -270 0 -270 0 0 -35 0 -35 300 0 300 0 0 140 0
140 -30 0 -30 0 0 -105z"/>
<path d="M697 8303 c-4 -3 -7 -24 -7 -46 l0 -39 330 3 c182 2 327 3 323 1 -5
-1 -152 -60 -328 -130 l-320 -128 0 -54 0 -55 403 -3 402 -2 0 46 0 47 -342
-5 c-189 -3 -337 -3 -329 0 7 2 160 62 340 132 l326 128 3 56 3 56 -399 0
c-219 0 -402 -3 -405 -7z"/>
<path d="M4940 8176 l0 -54 193 -46 c105 -26 221 -53 257 -60 72 -15 69 -18
-45 -40 -44 -9 -153 -32 -242 -53 l-163 -36 0 -54 0 -53 315 0 315 0 0 37 0
36 -276 -6 c-152 -4 -275 -5 -273 -2 4 4 530 115 544 115 3 0 5 17 3 37 l-3
37 -185 42 c-102 23 -223 51 -270 62 l-85 20 273 1 272 1 0 35 0 35 -315 0
-315 0 0 -54z"/>
<path d="M4544 8201 c-63 -28 -88 -88 -87 -206 1 -158 48 -223 155 -213 26 3
57 13 67 22 17 16 19 16 24 -3 3 -12 12 -19 23 -17 17 3 19 15 22 119 l3 117
-76 0 c-68 0 -75 -2 -75 -20 0 -17 7 -20 46 -20 l46 0 -4 -61 c-4 -49 -9 -66
-27 -80 -31 -25 -74 -24 -106 4 -47 41 -57 201 -18 284 30 65 114 68 143 6 12
-26 21 -33 44 -33 26 0 28 2 21 28 -9 36 -33 62 -72 78 -44 19 -80 17 -129 -5z"/>
<path d="M8563 8200 c-104 -47 -121 -194 -32 -275 50 -45 121 -65 249 -72 183
-10 310 25 357 96 28 42 31 126 6 178 -20 43 -79 83 -132 90 l-41 6 0 -35 c0
-32 3 -36 39 -47 55 -16 81 -40 88 -83 5 -33 2 -41 -28 -71 -43 -43 -103 -57
-249 -57 -145 0 -206 14 -247 55 -43 43 -44 85 -5 125 16 16 45 32 65 35 34 7
37 10 37 41 0 32 -2 34 -32 34 -18 0 -52 -9 -75 -20z"/>
<path d="M2472 7998 l3 -213 25 0 c25 0 25 1 28 103 l3 102 79 0 79 0 3 -102
3 -103 28 -3 27 -3 0 215 0 216 -30 0 -30 0 0 -90 0 -90 -80 0 -80 0 0 90 0
90 -30 0 -30 0 2 -212z"/>
<path d="M2850 8045 c0 -193 9 -227 64 -250 46 -19 119 -19 160 0 56 27 61 43
64 238 l4 177 -31 0 -31 0 0 -169 c0 -155 -2 -170 -21 -195 -28 -36 -89 -37
-124 -1 -25 24 -25 27 -25 195 l0 170 -30 0 -30 0 0 -165z"/>
<path d="M3240 8000 c0 -180 2 -210 15 -210 8 0 18 0 23 0 4 0 9 76 12 170 l5
170 80 -169 c78 -164 81 -169 113 -173 18 -2 35 -2 37 1 3 2 5 98 5 213 l0
208 -31 0 -31 0 4 -170 c1 -94 3 -170 2 -170 0 0 -38 77 -84 170 -83 169 -84
170 -117 170 l-33 0 0 -210z"/>
<path d="M3580 8190 c0 -18 6 -20 55 -20 l55 0 2 -192 3 -193 25 0 25 0 3 192
2 192 58 3 c43 2 57 7 57 18 0 13 -24 15 -142 18 -138 2 -143 2 -143 -18z"/>
<path d="M3922 7998 l3 -213 25 0 25 0 3 213 2 212 -30 0 -30 0 2 -212z"/>
<path d="M4080 8001 l0 -209 25 -4 25 -5 2 179 3 179 79 -168 c44 -92 83 -173
88 -179 4 -6 21 -9 38 -6 l30 4 0 209 0 209 -25 0 -25 0 0 -171 0 -171 -85
171 -85 171 -35 0 -35 0 0 -209z"/>
<path d="M2187 8194 c-4 -4 -7 -52 -7 -106 l0 -98 -76 0 -75 0 2 93 2 92 -38
0 -38 0 2 -92 2 -93 -65 0 -65 0 -3 98 -3 97 -35 0 -35 0 -3 -152 -3 -153 256
0 255 0 0 155 c0 146 -1 155 -19 155 -11 0 -26 2 -33 5 -8 3 -17 2 -21 -1z"/>
<path d="M10050 8016 l0 -146 -120 0 -120 0 0 130 0 130 -65 0 -65 0 0 -130 0
-130 -100 0 -100 0 0 135 0 135 -65 0 -65 0 0 -205 0 -205 415 0 415 0 0 204
c0 113 -3 207 -7 209 -5 3 -34 8 -65 12 l-58 7 0 -146z"/>
<path d="M7681 8033 c-63 -33 -75 -61 -79 -184 l-4 -109 301 0 301 0 0 35 0
35 -130 0 -130 0 0 63 c0 71 -20 120 -63 151 -39 29 -149 34 -196 9z m164 -67
c25 -17 45 -70 45 -123 l0 -33 -115 0 -115 0 0 56 c0 30 5 64 11 75 25 47 120
60 174 25z"/>
<path d="M1750 7670 l0 -150 255 0 255 0 0 50 0 50 -110 0 -110 0 0 96 0 95
-37 -3 -38 -3 -3 -92 -3 -93 -64 0 -65 0 0 100 0 100 -40 0 -40 0 0 -150z"/>
<path d="M6890 7715 l0 -45 100 0 100 0 0 -60 0 -60 -100 0 -100 0 0 -45 0
-45 250 0 250 0 0 45 0 45 -110 0 -110 0 0 60 0 60 110 0 110 0 0 45 0 45
-250 0 -250 0 0 -45z"/>
<path d="M8480 7716 l0 -36 240 0 c248 0 327 -9 354 -39 39 -42 28 -138 -18
-164 -14 -8 -107 -14 -296 -17 l-275 -5 -3 -38 -3 -38 283 3 c264 3 285 4 318
24 19 11 45 36 58 55 21 30 23 44 20 111 -3 86 -20 118 -79 153 -31 18 -55 20
-316 23 l-283 3 0 -35z"/>
<path d="M10434 7706 c-44 -20 -64 -52 -64 -107 0 -97 74 -139 244 -139 120 0
170 12 208 50 36 36 39 103 7 144 l-20 26 20 0 c14 0 21 6 21 20 0 19 -7 20
-130 20 l-130 0 0 -65 c0 -58 2 -65 20 -65 17 0 20 7 20 40 l0 40 43 0 c99 0
148 -35 133 -94 -12 -47 -57 -61 -191 -61 -133 0 -168 10 -195 58 -13 24 -13
30 0 54 9 16 29 31 48 37 24 7 32 14 32 32 0 28 -19 30 -66 10z"/>
<path d="M692 7648 l3 -43 170 -3 170 -2 -2 -128 -2 -127 -171 -3 -171 -2 3
-43 3 -42 403 -3 402 -2 0 45 0 45 -192 2 -193 3 -3 128 -3 127 196 0 195 0 0
45 0 45 -406 0 -405 0 3 -42z"/>
<path d="M7681 7638 c-62 -30 -80 -76 -81 -195 l0 -93 300 0 300 0 0 30 0 30
-130 0 -130 0 0 63 c-1 88 -25 138 -82 166 -57 27 -121 27 -177 -1z m159 -63
c32 -17 53 -73 48 -128 l-3 -32 -112 -3 -113 -3 0 65 c0 59 2 66 31 90 36 30
102 35 149 11z"/>
<path d="M3389 7557 c-85 -56 -123 -256 -84 -440 19 -91 47 -135 103 -159 97
-43 194 10 226 122 36 128 29 319 -16 408 -31 63 -76 92 -143 92 -37 0 -62 -6
-86 -23z m146 -61 c36 -36 49 -98 48 -231 0 -138 -13 -197 -53 -237 -35 -35
-69 -36 -108 -3 -43 36 -57 98 -57 245 0 182 31 250 113 250 21 0 41 -8 57
-24z"/>
<path d="M4571 7562 c-63 -31 -92 -98 -77 -176 10 -51 48 -91 126 -131 88 -47
111 -72 117 -129 9 -80 -26 -126 -97 -126 -37 0 -87 42 -95 80 -6 26 -11 30
-42 30 -34 0 -34 -1 -28 -32 23 -104 110 -156 216 -128 78 21 119 78 119 165
0 89 -35 135 -151 196 -74 40 -99 70 -99 119 0 57 31 90 84 90 47 0 67 -16 83
-65 8 -24 16 -31 43 -33 33 -3 33 -3 27 33 -17 104 -129 157 -226 107z"/>
<path d="M4971 7563 c-88 -44 -104 -179 -30 -253 17 -17 55 -42 83 -57 100
-50 137 -107 116 -182 -13 -48 -42 -71 -91 -71 -45 0 -86 31 -97 73 -7 27 -13
33 -42 35 l-33 3 6 -38 c7 -42 30 -77 70 -107 35 -26 138 -28 184 -3 48 26 75
77 75 145 0 100 -25 133 -152 207 -65 37 -80 51 -90 80 -24 72 11 125 81 125
40 0 63 -19 80 -68 9 -26 16 -32 40 -32 25 0 29 4 29 28 0 41 -32 93 -71 114
-42 22 -113 23 -158 1z"/>
<path d="M5582 7564 c-62 -32 -96 -107 -107 -239 -15 -179 29 -326 110 -365
53 -26 90 -25 145 3 81 41 118 162 107 352 -7 121 -26 181 -72 225 -30 29 -43
34 -92 37 -40 3 -68 -1 -91 -13z m120 -55 c35 -19 60 -93 65 -198 9 -160 -20
-275 -74 -300 -57 -26 -103 3 -129 82 -22 65 -24 259 -5 329 24 85 81 120 143
87z"/>
<path d="M9350 7510 l0 -70 415 0 415 0 0 70 0 70 -415 0 -415 0 0 -70z"/>
<path d="M2480 7260 l0 -310 35 0 35 0 0 135 0 135 63 0 c124 0 190 62 190
180 0 68 -22 114 -73 147 -29 20 -45 23 -141 23 l-109 0 0 -310z m215 236 c52
-34 52 -149 0 -193 -21 -18 -38 -23 -86 -23 l-59 0 0 121 0 122 60 -6 c34 -3
72 -12 85 -21z"/>
<path d="M2890 7260 l0 -310 35 0 35 0 0 145 0 145 50 0 c94 0 120 -28 120
-134 0 -35 3 -84 6 -110 6 -44 8 -46 40 -46 l33 0 -5 93 c-8 156 -12 174 -44
201 l-29 24 25 17 c54 35 70 136 34 211 -30 61 -64 74 -194 74 l-106 0 0 -310z
m215 236 c44 -29 46 -136 3 -176 -17 -16 -36 -20 -85 -20 l-63 0 0 111 0 112
60 -6 c34 -3 72 -12 85 -21z"/>
<path d="M3760 7259 l0 -310 33 3 32 3 3 143 3 142 99 0 100 0 0 30 0 30 -100
0 -100 0 0 105 0 105 105 0 105 0 0 30 0 30 -140 0 -140 0 0 -311z"/>
<path d="M4120 7260 l0 -310 144 0 c141 0 144 0 150 23 3 12 6 25 6 30 0 4
-52 7 -115 7 l-115 0 0 120 0 120 105 0 105 0 0 30 0 30 -105 0 -105 0 0 100
0 99 108 3 107 3 3 28 3 27 -145 0 -146 0 0 -310z"/>
<path d="M5302 7263 l3 -308 33 -3 32 -3 0 310 0 311 -35 0 -35 0 2 -307z"/>
<path d="M5940 7260 l0 -310 30 0 30 0 0 263 0 262 103 -260 102 -260 43 -3
42 -3 0 310 0 311 -36 0 -37 0 5 -250 c3 -137 4 -250 3 -250 -1 0 -46 112
-101 250 l-99 250 -42 0 -43 0 0 -310z"/>
<path d="M1750 7360 l0 -50 255 0 255 0 0 50 0 50 -255 0 -255 0 0 -50z"/>
<path d="M6943 7380 c-46 -28 -66 -72 -60 -133 10 -104 113 -154 297 -144 153
8 210 45 217 139 7 86 -51 158 -127 158 -24 0 -25 -3 -22 -39 3 -33 9 -41 32
-50 16 -5 34 -19 40 -31 31 -58 -64 -97 -216 -87 -108 6 -139 21 -139 67 0 30
5 37 33 49 28 13 32 19 32 53 0 35 -2 38 -27 38 -16 0 -42 -9 -60 -20z"/>
<path d="M10372 7358 c3 -23 4 -23 190 -23 102 0 184 -2 182 -4 -2 -3 -86 -37
-187 -76 -179 -71 -182 -73 -185 -104 l-3 -31 240 0 241 0 0 26 0 26 -194 -3
c-107 -2 -192 -1 -189 4 2 4 8 7 13 7 5 0 90 32 189 71 177 69 181 71 181 100
l0 29 -241 0 -240 0 3 -22z"/>
<path d="M10050 7225 l0 -135 -347 -2 -348 -3 -3 -72 -3 -73 416 0 415 0 0
204 0 203 -37 7 c-21 3 -50 6 -65 6 l-28 0 0 -135z"/>
<path d="M8906 7276 c-53 -20 -87 -55 -132 -138 -51 -93 -82 -118 -143 -118
-61 0 -91 28 -91 86 0 51 15 71 65 88 36 13 40 18 40 48 0 31 -2 33 -30 30
-87 -10 -138 -69 -138 -161 0 -118 79 -184 199 -166 60 9 103 48 153 139 55
100 87 126 158 126 47 0 59 -4 84 -29 31 -32 38 -79 18 -124 -12 -28 -58 -57
-88 -57 -18 0 -21 -6 -21 -41 0 -41 0 -41 33 -34 98 20 147 80 147 180 0 72
-28 129 -77 158 -43 25 -128 31 -177 13z"/>
<path d="M7920 7211 c-146 -37 -277 -71 -292 -74 -25 -7 -28 -12 -28 -50 l0
-42 288 -69 c158 -38 293 -71 300 -73 8 -4 12 6 12 29 l0 34 -77 18 c-43 10
-86 20 -95 22 -15 5 -18 18 -18 83 l0 78 58 12 c133 29 132 28 132 66 0 19 -3
35 -7 34 -5 0 -127 -31 -273 -68z m30 -124 l0 -64 -140 31 c-77 17 -135 33
-128 35 20 7 242 59 256 60 8 1 12 -18 12 -62z"/>
<path d="M2188 7153 l-3 -98 -217 -3 -218 -2 0 -50 0 -50 255 0 255 0 0 144
c0 153 -1 156 -50 156 -17 0 -20 -10 -22 -97z"/>
<path d="M847 7129 c-82 -19 -137 -68 -157 -137 -35 -126 31 -230 172 -274 64
-20 94 -23 248 -23 238 0 324 27 378 120 19 34 22 52 20 117 -3 68 -6 81 -34
115 -33 41 -97 78 -156 89 l-38 6 0 -45 0 -45 46 -11 c124 -31 146 -164 36
-220 -104 -53 -418 -54 -520 -2 -50 25 -72 52 -78 93 -11 65 32 115 114 133
30 6 32 9 32 51 0 48 0 48 -63 33z"/>
<path d="M6974 7039 c-16 -5 -41 -20 -55 -35 -22 -23 -24 -35 -27 -135 l-4
-109 251 0 251 0 0 40 0 40 -105 0 -105 0 0 39 c0 58 19 71 98 71 102 0 112 5
112 51 l0 39 -84 0 c-90 0 -122 -8 -150 -35 -16 -17 -18 -17 -32 3 -14 20 -72
43 -104 41 -8 0 -29 -5 -46 -10z m104 -95 c17 -12 22 -25 22 -60 l0 -44 -70 0
-70 0 0 40 c0 69 62 103 118 64z"/>
<path d="M10374 7015 c-4 -8 -4 -22 0 -30 5 -13 38 -15 238 -13 l233 3 0 25 0
25 -233 3 c-200 2 -233 0 -238 -13z"/>
<path d="M10372 6793 c3 -124 4 -128 26 -131 21 -3 22 0 22 52 l0 56 215 0
215 0 0 25 0 25 -215 0 -215 0 0 50 c0 47 -2 50 -25 50 l-26 0 3 -127z"/>
<path d="M9510 6836 c-75 -20 -116 -51 -146 -111 -22 -47 -26 -65 -22 -122 5
-88 31 -139 92 -181 85 -57 137 -67 351 -67 175 1 195 2 248 24 120 47 162
114 155 245 -3 64 -8 81 -34 118 -32 46 -110 92 -176 103 l-38 6 0 -74 0 -74
41 -7 c74 -12 112 -79 74 -133 -32 -45 -95 -58 -290 -58 -207 0 -263 13 -291
67 -31 60 16 128 89 128 l27 0 0 75 c0 84 1 83 -80 61z"/>
<path d="M4037 6746 c-131 -47 -197 -167 -217 -392 -13 -149 1 -335 32 -431
29 -87 98 -162 170 -182 76 -22 195 -11 252 23 75 44 129 137 138 236 l3 35
-85 0 -85 0 -9 -48 c-12 -68 -51 -107 -106 -107 -51 0 -89 36 -109 101 -19 64
-28 241 -20 380 11 180 51 249 140 249 41 0 86 -45 94 -96 11 -68 7 -65 97
-62 l83 3 -3 45 c-9 116 -82 217 -175 245 -62 18 -149 19 -200 1z"/>
<path d="M5710 6751 c-99 -30 -161 -101 -202 -232 -21 -68 -23 -92 -23 -284 0
-223 8 -281 50 -365 49 -96 126 -139 250 -140 91 0 159 25 207 76 35 37 74
126 83 187 l6 47 -85 0 c-85 0 -86 0 -92 -27 -21 -97 -51 -133 -111 -133 -47
0 -70 14 -92 59 -33 64 -44 158 -39 349 4 134 9 189 22 224 35 95 118 127 176
69 16 -16 31 -40 34 -55 4 -14 8 -37 11 -51 5 -24 8 -25 91 -25 l86 0 -7 53
c-8 69 -58 171 -99 202 -18 13 -52 31 -75 40 -45 16 -148 19 -191 6z"/>
<path d="M7631 6734 c-20 -16 -36 -44 -46 -77 -17 -59 -20 -195 -4 -251 39
-140 238 -138 265 2 6 32 6 32 -32 32 -34 0 -41 -5 -54 -33 -17 -36 -58 -48
-79 -23 -20 24 -34 127 -27 199 10 87 39 128 80 109 14 -6 28 -23 32 -37 5
-21 12 -25 45 -25 44 0 48 10 25 65 -28 67 -145 90 -205 39z"/>
<path d="M7907 6754 c-4 -4 -7 -106 -7 -226 l0 -218 120 0 120 0 0 35 0 35
-75 0 -75 0 -2 188 -3 187 -35 3 c-20 2 -39 0 -43 -4z"/>
<path d="M8190 6535 l0 -225 114 0 c120 0 126 2 126 51 0 17 -8 19 -80 19
l-80 0 0 65 0 65 70 0 70 0 0 35 0 35 -70 0 -70 0 0 55 0 55 75 0 75 0 0 35 0
35 -115 0 -115 0 0 -225z"/>
<path d="M8480 6535 l0 -225 40 0 40 0 0 95 0 95 33 0 c58 0 70 -17 75 -109
l5 -81 39 0 40 0 -3 84 c-3 65 -9 91 -24 113 l-21 28 23 24 c18 19 23 36 23
75 0 95 -46 126 -185 126 l-85 0 0 -225z m174 139 c19 -18 21 -75 4 -92 -7 -7
-31 -12 -55 -12 l-43 0 0 60 0 60 39 0 c23 0 46 -7 55 -16z"/>
<path d="M8820 6535 l0 -225 40 0 40 0 0 78 c0 60 5 82 19 102 l19 24 24 -54
c14 -30 33 -76 43 -102 17 -47 18 -48 61 -48 24 0 44 4 44 8 0 5 -25 64 -55
131 -30 67 -55 127 -55 132 0 5 25 45 55 88 30 43 55 81 55 85 0 3 -20 6 -45
6 l-44 0 -58 -97 -58 -97 -3 97 -3 97 -39 0 -40 0 0 -225z"/>
<path d="M1745 6739 c-3 -8 -4 -234 -3 -504 l3 -490 88 -3 87 -3 0 204 0 204
98 5 c149 7 218 44 270 143 24 44 27 61 27 150 0 114 -18 166 -76 224 -64 65
-102 75 -306 79 -148 3 -184 2 -188 -9z m335 -154 c47 -24 63 -66 58 -153 -3
-69 -6 -76 -36 -103 -30 -27 -39 -29 -107 -29 l-75 0 0 150 0 150 65 0 c39 0
78 -6 95 -15z"/>
<path d="M2435 6739 c-3 -8 -4 -234 -3 -504 l3 -490 85 0 85 0 3 213 2 212 60
0 c129 0 142 -20 152 -232 3 -87 10 -167 13 -178 6 -19 13 -21 88 -18 48 2 81
7 80 13 -1 6 -4 87 -8 180 -6 147 -10 177 -30 222 -13 28 -34 59 -48 68 l-25
16 47 47 c52 52 71 103 71 190 0 113 -47 194 -137 238 -55 27 -64 28 -245 32
-152 4 -189 2 -193 -9z m361 -170 c51 -51 51 -167 0 -218 -23 -23 -36 -26
-106 -29 l-80 -4 0 142 0 142 80 -4 c70 -3 83 -6 106 -29z"/>
<path d="M3305 6738 c-2 -7 -52 -224 -110 -483 -58 -258 -109 -480 -112 -493
-5 -23 -5 -23 83 -20 l88 3 25 125 26 125 112 3 111 3 11 -56 c6 -30 16 -81
22 -112 18 -100 9 -93 110 -93 49 0 89 2 89 5 0 4 -97 431 -209 920 l-18 80
-112 3 c-84 2 -112 -1 -116 -10z m150 -364 c20 -104 38 -197 41 -206 5 -16 -3
-18 -75 -18 -58 0 -81 4 -81 13 -1 18 74 407 77 403 1 -1 19 -88 38 -192z"/>
<path d="M4477 6743 c-4 -3 -7 -39 -7 -80 l0 -73 105 0 105 0 0 -425 0 -426
88 3 87 3 3 423 2 422 99 0 99 0 4 76 c2 42 1 78 -1 80 -7 7 -577 4 -584 -3z"/>
<path d="M5160 6245 l0 -506 88 3 87 3 0 500 0 500 -87 3 -88 3 0 -506z"/>
<path d="M6190 6245 l0 -505 249 0 249 0 5 23 c3 12 9 48 12 80 l7 57 -176 0
-176 0 0 145 0 145 160 0 161 0 -3 75 -3 76 -155 2 -155 2 -3 123 -3 122 166
0 165 0 0 80 0 80 -250 0 -250 0 0 -505z"/>
<path d="M7255 6684 c-55 -13 -160 -38 -232 -55 l-133 -31 0 -57 0 -57 233
-53 c127 -29 240 -55 250 -57 14 -5 17 2 17 39 l0 44 -60 12 -60 12 0 50 c0
27 0 52 -1 57 0 4 27 13 60 20 l61 14 0 44 c0 52 5 51 -135 18z m-65 -145 l0
-41 -37 7 c-21 4 -69 13 -108 20 -55 10 -64 14 -45 19 29 8 159 33 178 35 8 1
12 -13 12 -40z"/>
<path d="M10800 6546 l0 -86 -90 0 -90 0 0 81 c0 78 -1 80 -22 77 -21 -3 -23
-9 -26 -80 l-3 -78 -74 0 -75 0 0 80 c0 79 0 80 -25 80 l-25 0 0 -105 0 -105
240 0 241 0 -3 108 c-3 102 -4 107 -25 110 -22 3 -23 1 -23 -82z"/>
<path d="M1420 6460 l0 -151 -152 3 -153 3 -3 133 -3 132 -39 0 -39 0 0 -132
0 -133 -130 -3 -131 -3 0 146 0 146 -37 -3 -38 -3 0 -182 c0 -101 3 -183 8
-183 4 0 185 0 402 0 l395 0 0 184 c0 199 1 196 -56 196 l-24 0 0 -150z"/>
<path d="M10800 6266 l0 -86 -90 0 -90 0 0 75 c0 73 -1 75 -25 75 -24 0 -25
-2 -25 -75 l0 -75 -75 0 -75 0 0 80 c0 79 0 80 -25 80 l-25 0 0 -105 0 -105
240 0 241 0 -3 108 c-3 102 -4 107 -25 110 -22 3 -23 1 -23 -82z"/>
<path d="M7310 6245 l0 -85 -70 0 -69 0 -3 78 -3 77 -37 3 -38 3 0 -80 0 -81
-60 0 -60 0 0 80 0 80 -40 0 -40 0 0 -125 0 -125 250 0 250 0 0 130 0 130 -40
0 -40 0 0 -85z"/>
<path d="M690 5915 l0 -225 40 0 40 0 0 90 0 90 365 0 365 0 0 45 0 45 -365 0
-365 0 0 90 0 90 -40 0 -40 0 0 -225z"/>
<path d="M7570 5920 l0 -200 104 0 c99 0 104 1 110 23 3 12 6 25 6 30 0 4 -34
7 -75 7 l-75 0 0 60 0 60 65 0 65 0 0 30 0 30 -66 0 -65 0 3 48 3 47 68 3 c67
3 67 3 67 32 l0 30 -105 0 -105 0 0 -200z"/>
<path d="M7835 6108 c-3 -8 -4 -97 -3 -198 l3 -185 32 -3 32 -3 3 153 3 153
25 -150 25 -150 32 -3 c37 -4 34 -12 68 172 14 77 27 141 29 143 2 2 3 -67 2
-154 l-1 -158 33 -3 32 -3 0 201 0 201 -52 -3 -52 -3 -27 -130 c-15 -71 -28
-128 -28 -125 -1 3 -12 61 -24 130 l-23 125 -52 3 c-37 2 -54 -1 -57 -10z"/>
<path d="M8230 5920 l0 -200 35 0 35 0 0 79 0 78 49 6 c82 10 116 44 116 117
0 84 -50 120 -164 120 l-71 0 0 -200z m148 128 c7 -7 12 -29 12 -50 0 -41 -19
-58 -64 -58 -25 0 -26 2 -26 60 l0 60 33 0 c18 0 38 -5 45 -12z"/>
<path d="M8510 5920 l0 -200 104 0 104 0 4 30 5 30 -69 0 -68 0 0 170 0 170
-40 0 -40 0 0 -200z"/>
<path d="M8790 6092 c-38 -39 -53 -100 -48 -197 7 -126 47 -179 133 -177 91 1
125 57 125 204 0 147 -35 198 -136 198 -37 0 -51 -6 -74 -28z m126 -67 c16
-40 19 -161 4 -202 -22 -59 -69 -64 -91 -10 -18 42 -18 173 0 215 11 26 19 32
43 32 24 0 32 -6 44 -35z"/>
<path d="M9013 6108 c3 -7 25 -58 48 -113 37 -84 44 -114 49 -185 l5 -85 38
-3 37 -3 0 76 c0 68 5 87 50 195 28 66 50 122 50 125 0 4 -17 5 -37 3 -37 -3
-37 -4 -66 -86 -17 -45 -32 -80 -35 -78 -2 3 -17 40 -32 83 l-28 78 -42 3
c-32 3 -41 0 -37 -10z"/>
<path d="M9320 5920 l0 -200 104 0 104 0 4 30 5 30 -74 0 -73 0 0 60 0 60 65
0 65 0 0 30 0 30 -65 0 -65 0 0 50 0 50 70 0 70 0 0 30 0 30 -105 0 -105 0 0
-200z"/>
<path d="M9580 5920 l0 -200 35 0 35 0 0 85 0 85 34 0 c18 0 38 -6 44 -12 6
-7 14 -46 17 -85 l8 -73 35 0 35 0 -5 80 c-3 58 -10 85 -22 99 -18 19 -17 21
3 47 23 29 28 92 10 126 -17 31 -71 48 -154 48 l-75 0 0 -200z m154 124 c9 -8
16 -26 16 -39 0 -33 -26 -55 -66 -55 l-34 0 0 55 0 55 34 0 c19 0 42 -7 50
-16z"/>
<path d="M9918 6105 c-31 -18 -52 -73 -43 -115 7 -33 47 -71 101 -96 45 -21
68 -56 60 -88 -11 -46 -81 -46 -92 0 -5 20 -12 24 -45 24 -38 0 -39 -1 -33
-27 14 -63 86 -98 164 -82 51 11 80 50 80 108 0 61 -20 88 -99 130 -53 28 -61
36 -61 60 0 39 23 57 55 43 15 -7 25 -20 25 -32 0 -16 7 -20 35 -20 31 0 35 3
35 26 0 15 -12 38 -29 55 -25 24 -37 29 -78 29 -26 -1 -60 -7 -75 -15z"/>
<path d="M10997 6114 c-4 -4 -7 -18 -7 -31 0 -21 5 -23 45 -23 l45 0 0 -170 0
-170 35 0 35 0 0 170 0 170 43 0 c40 0 43 2 41 28 l-1 27 -114 3 c-63 1 -118
-1 -122 -4z"/>
<path d="M11275 6108 c-3 -7 -4 -97 -3 -198 l3 -185 34 0 34 0 -2 83 -2 82 33
0 c47 0 58 -15 58 -81 0 -79 5 -89 47 -89 32 0 35 2 29 23 -3 12 -6 48 -6 80
0 42 -5 62 -19 76 -18 18 -18 19 3 40 33 34 30 112 -7 148 -25 25 -35 28 -112
32 -66 2 -86 0 -90 -11z m149 -64 c9 -8 16 -26 16 -39 0 -33 -26 -55 -66 -55
l-34 0 0 48 c0 27 3 52 7 55 12 13 62 7 77 -9z"/>
<path d="M11626 6103 c-9 -33 -86 -365 -86 -374 0 -5 15 -9 34 -9 33 0 34 2
42 48 l9 47 47 3 c52 3 47 9 64 -75 3 -19 11 -23 39 -23 19 0 35 4 35 10 0 10
-76 341 -86 373 -4 13 -16 17 -49 17 -33 0 -45 -4 -49 -17z m67 -146 c7 -37
11 -69 9 -72 -3 -3 -18 -5 -34 -5 -24 0 -28 3 -24 23 3 12 11 49 17 82 13 67
13 67 32 -28z"/>
<path d="M11850 5920 l0 -200 69 0 c124 0 171 55 171 200 -1 154 -41 200 -175
200 l-65 0 0 -200z m140 122 c17 -14 23 -32 27 -84 10 -116 -16 -178 -72 -178
l-25 0 0 140 0 140 24 0 c13 0 34 -8 46 -18z"/>
<path d="M12150 5920 l0 -201 103 3 102 3 3 28 3 27 -70 0 -71 0 0 60 0 60 65
0 65 0 0 30 0 30 -65 0 -65 0 0 50 0 50 65 0 65 0 0 30 0 30 -100 0 -100 0 0
-200z"/>
<path d="M10370 5996 c0 -43 -13 -38 309 -110 34 -8 65 -16 67 -18 2 -2 -65
-19 -149 -37 -233 -50 -229 -48 -225 -90 l3 -36 235 0 235 0 3 23 3 22 -203 1
c-229 1 -233 -4 42 55 63 13 125 26 138 29 15 4 22 13 22 29 0 26 -23 33 -295
91 -44 10 -85 20 -92 24 -6 3 77 6 185 6 197 0 197 0 200 23 l3 22 -240 0
-241 0 0 -34z"/>
<path d="M7180 5992 c-23 -11 -46 -36 -67 -72 -52 -91 -71 -110 -107 -110 -37
0 -56 15 -56 45 0 25 29 55 53 55 13 0 17 10 17 45 0 51 -8 54 -65 31 -93 -39
-101 -191 -13 -246 25 -16 45 -20 86 -17 62 4 88 25 139 112 40 68 58 84 93
85 80 1 95 -92 20 -118 -27 -10 -30 -15 -30 -53 l0 -42 36 6 c75 12 114 64
114 149 0 116 -114 183 -220 130z"/>
<path d="M3629 5506 c-128 -45 -198 -149 -230 -339 -15 -92 -6 -424 13 -492
32 -109 84 -181 153 -215 89 -43 231 -43 314 0 77 39 142 140 156 243 l7 47
-95 0 -94 0 -7 -42 c-9 -57 -34 -95 -75 -114 -31 -15 -40 -15 -76 -3 -34 12
-44 23 -68 70 -39 78 -56 263 -39 435 13 148 25 189 67 231 37 37 85 44 134
18 30 -15 61 -76 61 -120 0 -25 0 -25 96 -25 l97 0 -7 53 c-17 124 -91 223
-190 252 -61 18 -168 19 -217 1z"/>
<path d="M7910 5425 c0 -76 3 -95 14 -95 10 0 16 13 18 38 l3 37 160 5 c122 4
160 8 160 18 0 10 -37 13 -160 15 l-160 2 0 38 c0 29 -4 37 -17 37 -16 0 -18
-11 -18 -95z"/>
<path d="M105 5498 c-2 -7 -24 -103 -50 -213 -25 -110 -48 -208 -51 -218 -5
-16 0 -18 38 -15 l43 3 9 53 9 52 57 0 57 0 9 -52 9 -53 43 -3 c23 -2 42 0 42
4 0 12 -102 439 -106 446 -9 13 -104 9 -109 -4z m75 -168 c7 -44 13 -83 12
-87 -1 -4 -15 -8 -32 -8 -16 0 -31 4 -32 8 -3 15 26 167 32 167 4 0 13 -36 20
-80z"/>
<path d="M404 5476 c-30 -30 -34 -40 -34 -89 0 -64 20 -92 96 -130 66 -34 86
-57 82 -98 -6 -65 -79 -73 -104 -12 -14 31 -18 34 -52 31 -34 -3 -37 -5 -34
-32 8 -70 73 -113 158 -103 57 6 92 30 111 75 32 77 -5 156 -94 197 -55 25
-83 54 -83 86 0 58 65 67 89 12 12 -28 20 -33 47 -33 41 0 48 11 34 56 -16 48
-60 74 -128 74 -48 0 -58 -4 -88 -34z"/>
<path d="M753 5500 c-32 -13 -63 -68 -63 -111 0 -52 35 -96 110 -138 72 -41
92 -72 73 -114 -22 -47 -87 -39 -106 13 -10 26 -16 30 -51 30 l-39 0 6 -37
c10 -56 54 -95 116 -101 61 -6 102 10 137 51 23 27 26 38 22 89 -5 70 -26 97
-110 139 -63 32 -83 58 -74 95 13 49 77 40 97 -13 7 -18 16 -23 44 -23 33 0
35 2 35 31 0 22 -10 41 -34 65 -30 30 -40 34 -87 33 -30 0 -64 -4 -76 -9z"/>
<path d="M1020 5280 l0 -230 40 0 40 0 0 230 0 230 -40 0 -40 0 0 -230z"/>
<path d="M1228 5494 c-58 -31 -75 -116 -35 -174 12 -18 49 -48 82 -65 70 -38
94 -71 80 -111 -19 -52 -87 -49 -108 6 -10 26 -16 30 -49 30 -32 0 -38 -3 -38
-20 0 -63 66 -120 138 -120 91 0 142 49 142 138 0 64 -29 101 -112 143 -70 36
-89 66 -64 104 26 40 66 32 85 -18 9 -22 17 -27 46 -27 33 0 35 2 35 31 0 22
-10 41 -34 65 -30 30 -40 34 -87 34 -30 -1 -66 -7 -81 -16z"/>
<path d="M1470 5476 c0 -34 1 -35 48 -38 l47 -3 3 -192 2 -193 40 0 40 0 0
195 0 195 50 0 50 0 0 35 0 35 -140 0 -140 0 0 -34z"/>
<path d="M1825 5498 c-2 -7 -25 -103 -50 -213 -26 -110 -49 -208 -52 -218 -4
-16 1 -18 39 -15 l43 3 9 53 9 53 56 -3 56 -3 9 -52 9 -53 43 0 c24 0 44 3 44
8 0 4 -24 106 -53 227 l-52 220 -53 3 c-36 2 -54 -1 -57 -10z m76 -174 c8 -46
13 -86 11 -89 -8 -8 -60 -6 -65 3 -6 10 26 182 33 176 2 -3 12 -43 21 -90z"/>
<path d="M2087 5503 c-4 -3 -7 -107 -7 -230 l0 -223 40 0 40 0 0 158 1 157 57
-155 57 -155 48 -3 47 -3 0 231 0 231 -37 -3 -38 -3 0 -152 c0 -84 0 -153 -1
-153 0 0 -27 70 -59 155 l-58 155 -42 0 c-23 0 -45 -3 -48 -7z"/>
<path d="M2417 5503 c-4 -3 -7 -19 -7 -35 0 -27 2 -28 50 -28 l50 0 0 -195 0
-195 40 0 40 0 2 193 3 192 48 3 c46 3 47 4 47 38 l0 34 -133 0 c-74 0 -137
-3 -140 -7z"/>
<path d="M4344 5487 c-46 -185 -240 -1034 -237 -1039 7 -14 180 -9 185 5 3 6
16 67 29 135 l23 122 123 0 c119 0 123 -1 128 -22 3 -13 15 -72 28 -133 l22
-110 98 -3 c53 -1 97 1 97 6 0 11 -238 1032 -245 1050 -3 9 -38 12 -124 12
-118 0 -121 0 -127 -23z m170 -391 l43 -216 -90 0 c-83 0 -89 1 -84 19 2 10
22 109 43 219 21 110 40 199 42 197 2 -1 22 -100 46 -219z"/>
<path d="M4940 4976 l0 -536 90 0 90 0 2 228 3 227 76 -1 c138 -2 150 -22 159
-260 4 -94 10 -176 14 -182 5 -8 39 -12 96 -12 l89 0 -4 83 c-3 45 -7 129 -10
187 -6 138 -18 176 -69 226 l-43 40 33 22 c18 12 45 43 61 69 26 44 28 56 28
153 0 116 -10 146 -68 208 -58 61 -116 74 -344 80 l-203 5 0 -537z m370 359
c46 -24 63 -66 58 -148 -3 -63 -7 -72 -35 -97 -34 -31 -89 -44 -163 -38 l-45
3 -3 148 -3 147 81 0 c53 0 91 -5 110 -15z"/>
<path d="M5710 4975 l0 -535 272 2 272 3 7 40 c3 22 9 59 12 83 l5 42 -191 0
-192 0 2 152 2 153 170 3 171 2 0 80 0 80 -171 2 -170 3 0 125 0 125 175 3
176 2 0 85 0 85 -270 0 -270 0 0 -535z"/>
<path d="M6395 5498 c-3 -7 -4 -247 -3 -533 l3 -520 271 -3 272 -2 5 22 c3 13
9 51 13 86 l7 62 -192 0 -191 0 0 155 0 155 170 0 170 0 0 80 0 80 -170 0
-170 0 0 130 0 130 180 0 180 0 0 85 0 85 -270 0 c-207 0 -272 -3 -275 -12z"/>
<path d="M7080 4976 l0 -536 95 0 95 0 0 230 0 230 53 0 c71 0 119 -15 147
-46 23 -24 25 -36 36 -217 7 -106 13 -193 13 -194 1 -2 41 -3 90 -3 l90 0 -5
178 c-7 213 -19 268 -73 319 l-37 36 47 46 c73 71 96 172 66 289 -21 80 -60
127 -134 164 l-64 31 -210 5 -209 5 0 -537z m400 337 c53 -59 52 -169 0 -221
-32 -33 -66 -42 -151 -42 l-59 0 0 151 0 151 91 -4 c88 -3 92 -4 119 -35z"/>
<path d="M2954 5489 c-23 -5 -53 -23 -70 -40 -26 -27 -29 -38 -33 -110 l-3
-79 186 0 186 0 0 63 c0 78 -23 126 -70 149 -44 21 -142 30 -196 17z m184 -85
c14 -10 22 -25 22 -45 l0 -29 -125 0 -125 0 0 29 c0 46 30 61 125 61 57 0 87
-5 103 -16z"/>
<path d="M8457 5473 c-4 -3 -7 -100 -7 -215 l0 -208 93 0 c75 0 98 4 125 20
67 41 79 136 22 184 l-30 25 25 25 c18 18 25 36 25 65 0 54 -32 90 -90 102
-54 10 -154 12 -163 2z m150 -44 c34 -13 43 -26 43 -63 0 -47 -25 -66 -87 -66
l-53 0 0 70 0 70 34 0 c19 0 47 -5 63 -11z m9 -179 c58 -23 73 -92 29 -135
-20 -21 -34 -25 -80 -25 l-55 0 0 85 0 85 39 0 c22 0 52 -5 67 -10z"/>
<path d="M8800 5305 c0 -199 7 -226 65 -251 74 -31 172 -9 199 45 13 24 16 66
16 206 l0 175 -25 0 -25 0 0 -159 c0 -91 -5 -172 -11 -190 -18 -51 -86 -68
-130 -32 -23 19 -24 25 -29 198 l-5 178 -27 3 -28 3 0 -176z"/>
<path d="M9212 5461 c-38 -25 -56 -63 -48 -107 8 -40 36 -65 116 -103 74 -36
90 -52 90 -95 0 -37 -7 -49 -37 -65 -47 -24 -105 -3 -123 45 -7 17 -17 24 -35
24 -51 0 -17 -79 45 -104 103 -41 210 12 210 105 0 51 -39 95 -115 129 -74 33
-95 53 -95 89 0 72 114 85 140 15 7 -17 17 -24 35 -24 34 0 33 31 -4 72 -24
27 -36 32 -87 35 -47 3 -66 0 -92 -16z"/>
<path d="M9507 5473 c-4 -3 -7 -100 -7 -215 l0 -208 30 0 30 0 0 215 0 215
-23 0 c-13 0 -27 -3 -30 -7z"/>
<path d="M9667 5473 c-4 -3 -7 -100 -7 -215 l0 -208 31 0 30 0 -3 174 c-2 96
-1 173 2 171 3 -2 41 -80 85 -174 79 -169 80 -171 113 -171 l32 0 0 216 0 215
-22 -3 c-23 -3 -23 -4 -23 -175 0 -94 -1 -171 -2 -170 -1 1 -40 80 -87 175
-81 163 -87 172 -114 172 -16 0 -32 -3 -35 -7z"/>
<path d="M10060 5265 l0 -215 119 0 c110 0 119 1 124 20 5 19 0 20 -94 20
l-99 0 0 80 0 79 88 3 c77 3 87 5 87 22 0 16 -9 18 -85 20 l-85 1 -3 67 -3 67
93 3 c85 3 93 5 93 23 0 19 -8 20 -117 23 l-118 3 0 -216z"/>
<path d="M10425 5465 c-42 -22 -55 -43 -55 -90 0 -56 19 -78 103 -118 86 -41
99 -54 99 -104 0 -46 -29 -73 -79 -73 -36 0 -83 36 -83 65 0 10 -10 15 -31 15
-29 0 -31 -2 -24 -27 22 -92 169 -124 245 -53 26 24 30 35 30 78 0 62 -26 92
-114 132 -92 42 -119 87 -75 131 32 32 88 23 114 -18 24 -38 65 -46 65 -13 0
72 -115 116 -195 75z"/>
<path d="M10758 5465 c-60 -34 -73 -118 -25 -163 12 -11 48 -32 79 -46 74 -33
98 -57 98 -99 0 -45 -18 -66 -62 -74 -44 -7 -84 14 -98 53 -11 28 -60 35 -60
9 0 -54 69 -105 140 -105 48 0 109 30 125 61 38 73 3 144 -95 186 -70 31 -100
59 -100 93 0 77 117 82 143 8 4 -11 17 -18 32 -18 34 0 33 31 -4 72 -24 28
-35 32 -87 35 -40 2 -68 -2 -86 -12z"/>
<path d="M7910 5220 l0 -80 179 0 c165 0 179 1 177 18 -2 14 -16 17 -84 20
l-82 3 0 54 c0 48 -2 55 -20 55 -18 0 -20 -7 -20 -55 l0 -55 -60 0 -60 0 0 60
c0 47 -3 60 -15 60 -12 0 -15 -16 -15 -80z"/>
<path d="M3160 5140 l0 -71 -52 3 -53 3 -3 63 c-3 58 -4 62 -27 62 -23 0 -24
-4 -27 -62 l-3 -63 -42 -3 -43 -3 0 65 0 66 -30 0 -31 0 3 -97 3 -98 180 0
180 0 0 100 0 100 -27 3 -28 3 0 -71z"/>
<path d="M8110 5060 c-80 -20 -157 -40 -172 -43 -21 -6 -28 -14 -28 -32 0 -14
7 -26 18 -29 38 -12 315 -76 327 -76 20 0 10 35 -11 38 -10 2 -36 8 -56 13
-37 9 -38 11 -38 54 0 43 1 45 38 54 20 5 46 11 56 13 18 3 31 34 18 41 -4 2
-72 -12 -152 -33z m10 -76 l0 -36 -42 7 c-23 4 -60 13 -83 19 l-40 13 65 15
c99 24 100 24 100 -18z"/>
<path d="M3160 4890 l0 -71 -52 3 -53 3 -3 63 c-3 58 -4 62 -27 62 -24 0 -25
-3 -25 -65 l0 -65 -45 0 -45 0 0 65 0 65 -30 0 -30 0 0 -100 0 -100 183 2 182
3 0 100 0 100 -27 3 -28 3 0 -71z"/>
<path d="M1460 4665 l0 -245 79 0 c64 0 84 4 112 23 74 49 89 161 29 217 l-28
26 24 27 c17 20 24 40 24 70 0 90 -49 127 -167 127 l-73 0 0 -245z m170 175
c25 -25 26 -80 2 -110 -13 -16 -29 -22 -67 -23 l-50 -2 -3 78 -3 77 51 0 c37
0 55 -5 70 -20z m5 -205 c20 -19 25 -35 25 -71 0 -69 -26 -94 -97 -94 l-53 0
0 95 0 95 50 0 c41 0 56 -5 75 -25z"/>
<path d="M1841 4885 c-47 -40 -66 -104 -65 -220 1 -119 15 -178 54 -217 24
-24 36 -28 83 -28 105 0 142 64 142 245 0 177 -38 245 -136 245 -36 0 -55 -6
-78 -25z m102 -24 c39 -15 57 -76 57 -189 0 -145 -26 -212 -83 -212 -55 0 -87
76 -87 203 0 100 16 162 48 187 28 23 32 23 65 11z"/>
<path d="M2183 4900 c-52 -21 -76 -105 -48 -164 13 -27 36 -47 85 -76 81 -47
90 -58 97 -109 14 -102 -128 -126 -153 -26 -4 18 -13 25 -30 25 -29 0 -32 -26
-9 -70 23 -45 53 -60 117 -60 49 0 62 4 90 29 27 24 32 36 35 87 5 76 -17 113
-89 151 -78 42 -98 65 -98 112 0 44 26 71 66 71 23 0 64 -42 64 -66 0 -8 11
-14 25 -14 28 0 33 22 13 65 -21 48 -103 70 -165 45z"/>
<path d="M2474 4876 c-30 -30 -34 -41 -34 -84 0 -62 20 -90 103 -138 76 -44
86 -58 87 -111 0 -52 -26 -83 -70 -83 -36 0 -80 39 -80 70 0 16 -6 20 -31 20
-27 0 -30 -3 -24 -22 23 -81 55 -108 129 -108 81 0 120 32 132 107 11 73 -16
112 -131 186 -28 18 -54 44 -59 58 -31 89 84 141 120 54 11 -27 20 -35 39 -35
29 0 30 8 11 54 -19 47 -51 66 -109 66 -42 0 -54 -5 -83 -34z"/>
<path d="M9180 4872 c-24 -12 -43 -33 -60 -67 -22 -44 -25 -63 -25 -155 1
-167 43 -234 146 -234 56 0 93 22 124 75 17 29 20 52 20 159 0 107 -3 131 -21
164 -36 69 -113 94 -184 58z m86 -60 c53 -35 59 -251 9 -309 -20 -24 -26 -26
-48 -16 -37 17 -50 70 -45 190 2 82 7 105 22 122 20 21 42 26 62 13z"/>
<path d="M10032 4879 c-72 -21 -114 -155 -94 -303 16 -116 54 -160 142 -160
73 0 122 41 136 112 6 32 6 32 -34 32 -37 0 -41 -3 -52 -35 -21 -65 -81 -54
-101 18 -16 62 -8 217 15 251 25 38 66 33 85 -11 13 -29 19 -33 54 -33 39 0
39 0 33 32 -17 86 -89 124 -184 97z"/>
<path d="M8440 4650 l0 -230 40 0 40 0 0 95 0 95 45 0 c97 0 145 46 145 137
-1 57 -16 87 -56 114 -23 15 -47 19 -121 19 l-93 0 0 -230z m173 142 c21 -19
23 -75 2 -95 -17 -18 -70 -31 -85 -22 -11 7 -14 128 -3 139 10 10 65 -4 86
-22z"/>
<path d="M8770 4650 l0 -230 40 0 40 0 0 100 0 100 28 0 c15 0 38 -7 50 -16
19 -13 22 -24 22 -84 0 -92 4 -100 50 -100 l38 0 -5 88 c-4 65 -10 94 -25 115
l-19 28 25 30 c45 54 32 143 -26 179 -27 16 -51 20 -125 20 l-93 0 0 -230z
m142 160 c29 -8 38 -17 43 -40 11 -50 -27 -90 -86 -90 -17 0 -19 7 -19 63 0
82 1 84 62 67z"/>
<path d="M9490 4702 c0 -191 -4 -208 -50 -214 -20 -2 -26 -9 -28 -35 l-3 -33
50 0 c38 0 56 6 78 24 l28 24 3 206 3 206 -40 0 -41 0 0 -178z"/>
<path d="M9650 4650 l0 -231 118 3 117 3 3 33 3 32 -80 0 -81 0 0 70 0 70 76
0 75 0 -3 33 -3 32 -72 3 -73 3 0 54 0 55 75 0 75 0 0 35 0 35 -115 0 -115 0
0 -230z"/>
<path d="M10250 4846 c0 -34 1 -35 48 -38 l47 -3 2 -190 2 -190 40 -3 41 -3 0
195 0 196 50 0 50 0 0 35 0 35 -140 0 -140 0 0 -34z"/>
<path d="M7954 4829 c-30 -15 -44 -51 -44 -114 l0 -55 179 0 c165 0 179 1 177
18 -2 14 -16 17 -84 20 l-82 3 0 27 c0 49 19 63 95 70 53 5 70 11 70 22 0 12
-13 15 -69 13 -40 -2 -78 -9 -91 -17 -19 -13 -24 -13 -37 0 -19 20 -87 27
-114 13z m96 -49 c11 -11 20 -33 20 -50 l0 -30 -65 0 -65 0 0 30 c0 37 31 70
65 70 14 0 34 -9 45 -20z"/>
<path d="M2857 4684 c-4 -4 -7 -20 -7 -37 l0 -29 120 4 c65 1 116 0 112 -3 -4
-3 -58 -25 -119 -49 l-113 -43 0 -38 0 -39 185 0 185 0 0 30 0 29 -126 3 -126
3 123 47 124 46 0 39 0 38 -176 3 c-96 1 -178 -1 -182 -4z"/>
<path d="M7936 4579 c-21 -16 -26 -29 -26 -63 0 -47 23 -76 73 -95 41 -16 181
-14 221 3 70 29 87 97 37 147 -35 34 -71 39 -71 9 0 -13 7 -20 19 -20 26 0 50
-36 43 -62 -9 -35 -66 -51 -164 -46 -67 3 -92 8 -108 23 -36 32 -23 78 25 87
11 2 21 11 23 21 5 24 -38 22 -72 -4z"/>
<path d="M2595 4195 c-84 -30 -125 -117 -125 -270 0 -200 59 -285 195 -285 82
0 128 28 163 99 25 52 27 65 27 181 0 97 -4 136 -18 172 -38 97 -138 140 -242
103z m118 -92 c27 -31 40 -108 35 -211 -5 -109 -24 -158 -62 -168 -65 -16 -96
30 -104 151 -10 166 16 245 82 245 19 0 40 -8 49 -17z"/>
<path d="M9635 4195 c-51 -18 -109 -83 -130 -145 -34 -102 -37 -331 -7 -435
37 -124 105 -178 223 -177 111 0 170 45 216 162 26 68 26 373 -1 448 -46 132
-170 193 -301 147z m119 -106 c36 -17 56 -66 67 -168 12 -111 -3 -280 -29
-325 -37 -63 -113 -60 -145 6 -44 91 -45 373 -1 447 27 46 64 60 108 40z"/>
<path d="M740 3925 l0 -276 157 3 158 3 6 38 6 37 -109 0 -108 0 0 80 0 80 95
0 95 0 0 45 0 45 -95 0 -95 0 0 65 0 65 100 0 100 0 0 45 0 45 -155 0 -155 0
0 -275z"/>
<path d="M1130 3925 l0 -275 51 0 50 0 -3 220 c-2 120 0 216 3 212 3 -4 20
-92 38 -197 18 -104 35 -200 38 -212 4 -20 12 -23 53 -23 l49 0 16 73 c8 39
29 137 44 217 l29 145 1 -217 1 -218 55 0 55 0 -2 273 -3 272 -80 0 -80 0 -36
-170 c-19 -93 -38 -177 -41 -185 -2 -8 -13 30 -22 85 -10 55 -26 138 -35 185
l-17 85 -82 3 -82 3 0 -276z"/>
<path d="M1710 3925 l0 -275 55 0 55 0 0 109 0 108 69 5 c119 9 174 60 174
163 0 70 -26 113 -83 143 -38 19 -60 22 -157 22 l-113 0 0 -275z m210 185 c24
-13 41 -64 33 -101 -8 -39 -38 -59 -90 -59 l-43 0 0 85 0 85 41 0 c22 0 49 -4
59 -10z"/>
<path d="M2137 4193 c-4 -3 -7 -127 -7 -275 l0 -268 154 0 154 0 6 31 c3 17 6
35 6 40 0 5 -47 9 -105 9 l-105 0 0 235 0 235 -48 0 c-27 0 -52 -3 -55 -7z"/>
<path d="M2870 4197 c0 -2 34 -79 75 -171 l75 -168 0 -104 0 -104 55 0 55 0 0
98 0 99 79 176 79 177 -57 0 -57 0 -44 -120 c-40 -107 -60 -144 -60 -108 0 7
-19 61 -41 120 l-42 108 -58 0 c-33 0 -59 -1 -59 -3z"/>
<path d="M3330 3925 l0 -275 51 0 52 0 -5 230 c-2 126 -3 228 -2 227 1 -1 18
-94 38 -207 20 -113 39 -215 41 -227 5 -20 12 -23 55 -23 28 0 50 3 50 8 1 4
21 104 45 222 l43 215 1 -222 1 -223 50 0 50 0 0 275 0 275 -78 0 -78 0 -39
-189 c-22 -104 -40 -189 -41 -188 -1 1 -16 79 -33 172 -18 94 -34 178 -37 188
-5 14 -18 17 -85 17 l-79 0 0 -275z"/>
<path d="M3910 3925 l0 -275 154 0 154 0 6 31 c3 17 6 35 6 40 0 5 -49 9 -110
9 l-110 0 0 80 0 80 100 0 100 0 0 45 0 45 -100 0 -100 0 0 65 0 64 103 3 102
3 3 43 3 42 -155 0 -156 0 0 -275z"/>
<path d="M4300 3925 l0 -275 45 0 45 0 2 197 3 197 76 -194 76 -195 62 -3 61
-3 0 276 0 275 -51 0 -50 0 3 -184 c2 -101 1 -182 -2 -180 -2 3 -37 84 -76
182 l-72 177 -61 3 -61 3 0 -276z"/>
<path d="M4730 4155 l0 -45 63 0 62 0 -3 -230 -3 -230 56 0 55 0 0 230 0 230
65 0 65 0 0 45 0 45 -180 0 -180 0 0 -45z"/>
<path d="M6960 3824 l0 -376 143 4 c159 4 203 18 250 80 56 74 84 211 74 358
-8 112 -31 181 -79 235 -53 60 -105 75 -265 75 l-123 0 0 -376z m265 242 c48
-31 59 -76 60 -231 0 -209 -32 -275 -136 -275 l-49 0 0 266 0 267 49 -5 c28
-3 62 -13 76 -22z"/>
<path d="M7530 3825 l0 -375 195 0 194 0 6 38 c3 20 8 45 10 55 3 15 -9 17
-131 17 l-134 0 0 110 0 110 120 0 120 0 0 60 0 60 -120 0 -120 0 0 90 0 90
125 0 125 0 0 60 0 60 -195 0 -195 0 0 -375z"/>
<path d="M7980 4190 c0 -6 41 -174 91 -375 l91 -365 79 0 78 0 10 38 c5 20 47
183 91 361 45 178 84 330 87 338 4 11 -8 13 -67 11 l-73 -3 -53 -250 c-30
-137 -57 -271 -60 -298 -4 -26 -8 -46 -10 -44 -2 2 -13 55 -24 118 -16 92 -70
350 -95 457 -5 20 -11 22 -75 22 -41 0 -70 -4 -70 -10z"/>
<path d="M8577 4193 c-4 -3 -7 -172 -7 -375 l0 -368 195 0 c219 0 198 -8 208
78 l4 32 -134 0 -133 0 0 110 0 110 120 0 120 0 0 60 0 60 -120 0 -120 0 0 90
0 90 125 0 125 0 0 60 0 60 -188 0 c-104 0 -192 -3 -195 -7z"/>
<path d="M9060 3825 l0 -375 189 0 188 0 7 38 c12 76 20 71 -121 74 l-128 3
-3 318 -2 317 -65 0 -65 0 0 -375z"/>
<path d="M10070 3826 l0 -376 65 0 65 0 0 149 0 148 80 6 c101 7 161 34 198
90 24 37 27 49 27 133 0 86 -2 95 -30 135 -50 71 -86 83 -257 87 l-148 4 0
-376z m260 249 c26 -13 50 -61 50 -100 0 -5 -5 -27 -11 -47 -12 -47 -49 -68
-119 -68 l-50 0 0 115 0 115 50 0 c28 0 64 -7 80 -15z"/>
<path d="M10609 4196 c-2 -2 -3 -171 -1 -375 l2 -371 62 0 61 0 -5 318 -5 317
53 -315 c29 -173 53 -316 53 -317 1 -2 28 -3 60 -3 l59 0 11 48 c5 26 28 148
50 272 23 124 45 243 50 265 6 27 9 -64 10 -272 l1 -313 60 0 60 0 0 375 0
376 -97 -3 -98 -3 -42 -225 c-61 -319 -55 -308 -81 -150 -12 74 -32 190 -44
257 l-21 123 -97 0 c-53 0 -99 -2 -101 -4z"/>
<path d="M11327 4193 c-4 -3 -7 -172 -7 -375 l0 -368 195 0 194 0 6 38 c3 20
8 45 10 55 3 15 -9 17 -131 17 l-134 0 0 110 0 110 120 0 120 0 0 60 0 60
-120 0 -120 0 0 90 0 90 125 0 125 0 0 60 0 60 -188 0 c-104 0 -192 -3 -195
-7z"/>
<path d="M11810 3825 l0 -375 60 0 60 0 0 268 1 267 97 -267 96 -268 73 0 73
0 0 375 0 375 -61 0 -60 0 3 -255 c2 -140 0 -251 -3 -247 -3 4 -26 66 -52 137
-26 72 -67 182 -91 245 l-43 115 -77 3 -76 3 0 -376z"/>
<path d="M12340 4140 l0 -60 80 0 80 0 0 -315 0 -315 70 0 70 0 0 315 0 315
80 0 80 0 0 60 0 60 -230 0 -230 0 0 -60z"/>
<path d="M5770 4075 l0 -105 -235 0 -235 0 0 -50 0 -50 280 0 280 0 0 144 c0
80 -3 147 -7 149 -5 2 -25 7 -45 11 l-38 7 0 -106z"/>
<path d="M6670 4040 l0 -130 -135 0 -135 0 0 120 0 120 -35 0 -35 0 0 -120 0
-120 -120 0 -120 0 0 126 0 125 -31 -3 -30 -3 0 -160 0 -160 355 -3 356 -2 0
170 0 170 -35 0 -35 0 0 -130z"/>
<path d="M5768 3694 l-3 -109 -77 -3 -78 -3 0 101 0 100 -45 0 -44 0 -3 -97
-3 -98 -65 0 -65 0 -3 103 -3 102 -39 0 -40 0 0 -155 0 -155 280 0 280 0 0
149 c0 83 -3 152 -8 155 -4 2 -24 7 -44 11 l-37 7 -3 -108z"/>
<path d="M6027 3553 l2 -198 30 -3 31 -3 0 80 0 81 325 0 325 0 0 40 0 40
-322 2 -323 3 -3 78 -3 77 -32 0 -32 0 2 -197z"/>
<path d="M2122 3198 l3 -253 115 0 c112 0 115 1 118 23 3 21 1 22 -87 22 l-91
0 0 100 0 100 83 0 c76 0 83 2 83 20 0 18 -7 20 -83 20 l-83 0 0 85 0 85 85 0
c84 0 85 0 85 25 l0 25 -115 0 -115 0 2 -252z"/>
<path d="M2425 3438 c-3 -7 -4 -121 -3 -253 l3 -240 25 0 25 0 0 207 c0 114 2
202 6 195 3 -6 41 -101 85 -210 l78 -198 31 3 30 3 0 250 0 250 -25 0 -25 0 1
-198 c1 -108 -1 -196 -3 -194 -2 3 -39 92 -81 198 -77 192 -78 194 -110 197
-20 2 -34 -2 -37 -10z"/>
<path d="M2759 3448 c-13 -46 -11 -48 51 -48 l60 0 0 -230 0 -230 25 0 25 0 0
230 0 230 55 0 c52 0 55 1 55 25 l0 25 -135 0 c-74 0 -135 -1 -136 -2z"/>
<path d="M3090 3195 l0 -255 114 0 c115 0 126 3 126 40 0 5 -42 11 -92 12
l-93 3 0 95 0 95 83 3 c73 2 82 5 82 22 0 17 -9 20 -82 22 l-83 3 -3 83 -3 82
91 0 c89 0 90 0 90 25 l0 25 -115 0 -115 0 0 -255z"/>
<path d="M3392 3199 l3 -254 25 0 25 0 3 119 3 119 52 -6 c74 -9 87 -28 87
-127 0 -95 5 -110 36 -110 23 0 24 3 24 73 -1 91 -13 148 -39 168 -19 16 -19
16 6 42 31 30 43 110 23 156 -20 50 -54 65 -158 69 l-92 4 2 -253z m178 181
c19 -19 24 -39 21 -90 -3 -40 -45 -70 -97 -70 l-44 0 0 90 0 90 50 0 c37 0 55
-5 70 -20z"/>
<path d="M3734 3437 c-2 -7 -3 -120 -2 -252 l3 -240 25 0 c25 0 25 0 28 108
l3 107 47 0 c97 0 156 55 156 145 0 99 -58 145 -182 145 -49 0 -74 -4 -78 -13z
m177 -56 c20 -16 24 -28 24 -76 0 -72 -23 -95 -96 -95 l-49 0 0 95 0 95 49 0
c33 0 56 -6 72 -19z"/>
<path d="M4064 3437 c-2 -7 -3 -120 -2 -252 l3 -240 25 0 25 0 3 119 3 119 52
-6 c72 -9 87 -29 87 -121 0 -96 7 -116 36 -116 23 0 24 2 24 78 0 91 -14 148
-40 164 -18 11 -17 14 11 45 24 28 29 42 29 86 0 69 -26 112 -77 126 -55 15
-172 14 -179 -2z m173 -52 c45 -32 37 -131 -13 -154 -14 -6 -43 -11 -64 -11
l-40 0 0 90 0 90 48 0 c26 0 57 -7 69 -15z"/>
<path d="M4404 3437 c-2 -7 -3 -120 -2 -252 l3 -240 28 -3 27 -3 0 255 0 256
-25 0 c-14 0 -28 -6 -31 -13z"/>
<path d="M4602 3437 c-37 -21 -54 -55 -54 -109 0 -64 20 -92 103 -140 93 -53
118 -103 84 -168 -30 -58 -126 -44 -143 23 -6 25 -14 33 -35 35 -31 4 -34 -11
-13 -62 21 -51 60 -76 118 -76 92 0 138 46 138 137 0 65 -27 106 -92 140 -81
44 -110 75 -106 119 7 79 95 98 128 27 10 -22 22 -33 38 -33 42 0 20 80 -29
106 -34 17 -106 18 -137 1z"/>
<path d="M4880 3195 l0 -255 110 0 c106 0 111 1 119 23 8 22 7 22 -86 25 l-94
3 3 97 3 97 83 3 c73 2 82 5 82 22 0 17 -9 20 -82 22 l-83 3 -3 83 -3 82 91 0
c89 0 91 1 88 23 -3 21 -7 22 -115 25 l-113 3 0 -256z"/>
<path d="M5300 3367 l0 -53 222 -49 c210 -47 220 -50 178 -58 -58 -11 -360
-76 -382 -83 -15 -4 -18 -17 -18 -63 l0 -57 218 57 c119 32 245 65 280 75 l62
16 0 59 c0 52 -3 61 -22 69 -29 12 -510 140 -526 140 -8 0 -12 -19 -12 -53z"/>
<path d="M6380 3311 l-345 -87 -5 -52 c-4 -41 -2 -53 10 -57 28 -8 684 -165
692 -165 4 0 8 17 8 38 l0 39 -110 24 -111 23 3 96 3 95 108 25 107 24 0 43
c0 24 -3 43 -7 42 -5 0 -163 -40 -353 -88z m70 -140 c0 -39 -3 -72 -7 -74 -5
-2 -82 13 -173 34 -91 21 -160 38 -155 39 6 1 71 16 145 34 74 19 147 34 163
35 27 1 27 1 27 -68z"/>
<path d="M7045 3253 c-72 -19 -95 -68 -95 -207 l0 -106 268 2 267 3 0 45 0 45
-112 3 -113 3 0 39 c0 63 26 76 170 83 l55 2 0 44 0 44 -93 -2 c-105 -2 -117
-5 -149 -34 l-23 -20 -22 21 c-40 37 -95 49 -153 35z m109 -106 c11 -8 20 -31
23 -60 l6 -47 -77 0 -76 0 0 42 c0 24 7 49 17 60 19 21 81 24 107 5z"/>
<path d="M7864 3240 c-16 -5 -41 -21 -55 -36 -20 -22 -24 -36 -24 -89 0 -75
17 -99 107 -147 73 -39 89 -58 95 -110 7 -61 -23 -98 -78 -98 -44 0 -74 24
-85 65 -5 20 -12 25 -35 25 -27 0 -29 -2 -23 -27 18 -75 65 -113 141 -113 103
0 170 98 132 197 -15 41 -46 70 -120 114 -71 41 -79 52 -79 105 0 87 101 101
136 18 11 -26 20 -34 39 -34 29 0 31 15 11 65 -24 56 -95 85 -162 65z"/>
<path d="M8883 3243 c-12 -2 -37 -22 -56 -43 -46 -50 -60 -119 -55 -259 7
-176 51 -239 160 -229 55 6 92 33 114 85 21 50 18 63 -15 63 -24 0 -30 -5 -34
-30 -14 -65 -83 -92 -125 -47 -32 34 -45 104 -41 224 5 122 23 169 73 186 36
12 77 -15 91 -61 7 -26 14 -32 38 -32 27 0 28 2 22 33 -9 41 -32 80 -56 95
-21 14 -85 22 -116 15z"/>
<path d="M8120 2980 l0 -260 30 0 30 0 0 110 0 110 43 0 c102 0 160 42 173
126 5 35 2 58 -12 92 -27 64 -65 82 -176 82 l-88 0 0 -260z m190 190 c25 -25
34 -61 26 -104 -9 -48 -37 -69 -101 -74 l-55 -4 0 101 0 101 55 0 c41 0 60 -5
75 -20z"/>
<path d="M8470 2980 l0 -260 119 0 c121 0 131 3 131 41 0 5 -45 9 -100 9
l-101 0 3 98 3 97 88 3 c85 3 87 3 87 27 0 25 -1 25 -90 25 l-91 0 3 83 3 82
93 3 c90 3 92 3 92 27 l0 25 -120 0 -120 0 0 -260z"/>
<path d="M9130 2980 l0 -260 30 0 30 0 0 260 0 260 -30 0 -30 0 0 -260z"/>
<path d="M9371 3203 c-6 -21 -35 -138 -64 -260 l-54 -223 28 0 c30 0 31 3 56
115 l9 40 69 3 70 3 18 -81 c18 -78 19 -80 48 -80 28 0 30 2 24 28 -3 15 -31
131 -63 257 l-57 230 -37 3 c-35 3 -37 1 -47 -35z m99 -260 c0 -9 -18 -13 -56
-13 -53 0 -56 1 -51 23 3 12 16 69 28 125 l23 104 28 -114 c15 -62 27 -119 28
-125z"/>
<path d="M9640 2980 l0 -260 120 0 120 0 0 25 c0 25 -1 25 -90 25 l-90 0 0
235 0 235 -30 0 -30 0 0 -260z"/>
<path d="M9830 3215 c0 -24 3 -25 60 -25 l60 0 0 -235 0 -235 25 0 25 0 2 233
3 232 58 3 c53 3 57 5 57 27 l0 25 -145 0 -145 0 0 -25z"/>
<path d="M10160 3231 c0 -5 29 -78 65 -161 l65 -152 0 -99 0 -99 30 0 30 0 0
106 0 106 65 149 c36 83 65 152 65 154 0 3 -13 5 -29 5 -29 0 -31 -4 -78 -125
-26 -68 -50 -125 -53 -125 -3 0 -27 57 -53 125 -47 121 -49 125 -78 125 -16 0
-29 -4 -29 -9z"/>
<path d="M5770 2865 l0 -105 -80 0 -80 0 0 95 0 95 -45 0 -45 0 0 -95 0 -95
-70 0 -70 0 0 100 0 100 -40 0 -40 0 0 -155 0 -155 280 0 280 0 0 154 0 154
-31 6 c-61 12 -59 15 -59 -99z"/>
<path d="M7400 2785 l0 -95 -75 0 -75 0 0 85 0 85 -45 0 -45 0 0 -85 0 -85
-65 0 -65 0 0 90 0 90 -40 0 -41 0 3 -137 3 -138 265 0 265 0 3 136 c3 135 2
137 -20 143 -13 3 -33 6 -45 6 -22 0 -23 -3 -23 -95z"/>
<path d="M6106 2847 c-62 -35 -75 -71 -77 -217 l-1 -125 356 -3 356 -2 0 40 0
40 -165 0 -165 0 0 55 c0 72 21 122 57 136 15 6 83 13 151 16 l122 6 0 39 0
39 -127 -6 c-149 -8 -185 -17 -213 -53 l-21 -26 -22 26 c-34 41 -79 58 -149
58 -47 0 -73 -6 -102 -23z m210 -90 c24 -28 38 -91 32 -143 l-3 -29 -127 -3
-128 -3 0 59 c0 120 32 154 139 149 55 -3 67 -7 87 -30z"/>
<path d="M3070 2729 c-38 -15 -58 -38 -97 -107 -19 -35 -47 -70 -60 -79 -23
-15 -28 -15 -52 -2 -40 22 -36 69 6 89 29 13 33 19 33 58 l0 44 -32 -7 c-49
-11 -67 -23 -88 -58 -24 -38 -26 -104 -6 -152 18 -41 66 -68 122 -67 65 1 95
22 144 106 46 79 80 104 120 91 58 -18 58 -96 0 -116 -27 -10 -30 -15 -30 -56
l0 -45 33 7 c72 15 111 67 111 150 1 114 -101 185 -204 144z"/>
<path d="M4924 2730 c-67 -21 -99 -94 -71 -162 11 -27 30 -45 69 -67 88 -49
98 -59 98 -94 0 -41 -15 -57 -52 -57 -22 0 -33 8 -46 30 -14 25 -23 30 -56 30
-37 0 -38 -1 -32 -27 16 -68 77 -107 150 -98 83 12 122 57 118 139 -2 53 -26
83 -101 124 -69 38 -90 67 -72 101 8 14 21 21 42 21 24 0 32 -6 40 -30 9 -25
16 -30 44 -30 42 0 46 6 31 49 -20 60 -92 91 -162 71z"/>
<path d="M3430 2510 l0 -222 88 4 c107 5 141 24 169 96 26 67 25 203 -2 256
-33 65 -63 80 -166 84 l-89 4 0 -222z m170 123 c20 -25 21 -38 18 -129 -4
-118 -17 -144 -75 -144 l-33 0 0 150 0 150 34 0 c26 0 40 -7 56 -27z"/>
<path d="M3770 2550 c0 -203 6 -228 62 -251 48 -20 123 -17 156 8 48 35 52 55
52 246 l0 177 -40 0 -40 0 0 -173 c0 -156 -2 -176 -18 -190 -23 -21 -56 -22
-76 -1 -13 13 -16 45 -16 190 l0 174 -40 0 -40 0 0 -180z"/>
<path d="M4080 2695 l0 -35 50 0 50 0 0 -185 0 -185 40 0 40 0 0 185 0 185 45
0 c45 0 45 0 45 35 l0 35 -135 0 -135 0 0 -35z"/>
<path d="M4400 2510 l0 -220 40 0 40 0 0 220 0 220 -40 0 -40 0 0 -220z"/>
<path d="M4560 2510 l0 -220 115 0 c107 0 115 1 115 19 0 11 3 26 6 35 5 14
-5 16 -75 16 l-81 0 0 65 0 65 70 0 70 0 0 30 0 30 -70 0 -70 0 0 55 0 55 75
0 75 0 0 35 0 35 -115 0 -115 0 0 -220z"/>
<path d="M5770 2495 l0 -105 -235 0 -235 0 0 -55 0 -56 278 3 277 3 3 148 c2
113 0 148 -10 151 -7 3 -28 7 -45 10 l-33 6 0 -105z"/>
<path d="M8464 2544 c-12 -3 -34 -18 -49 -34 -22 -23 -28 -39 -28 -74 0 -58
19 -85 84 -120 76 -41 89 -54 89 -93 0 -26 -6 -36 -25 -45 -33 -15 -72 3 -81
37 -5 20 -12 25 -39 25 -43 0 -49 -11 -31 -54 26 -61 105 -91 180 -66 52 17
76 52 76 112 0 65 -23 96 -94 131 -62 31 -91 65 -81 96 7 22 46 38 65 26 6 -4
15 -18 20 -31 8 -19 17 -24 45 -24 31 0 35 3 35 25 0 42 -48 85 -100 89 -25 2
-55 2 -66 0z"/>
<path d="M7780 2330 l0 -210 40 0 40 0 0 90 0 90 28 0 c53 0 66 -20 70 -104
l4 -76 40 0 41 0 -7 53 c-3 28 -6 67 -6 85 0 18 -8 40 -20 52 -19 19 -19 20 5
44 45 45 27 148 -30 174 -14 7 -66 12 -115 12 l-90 0 0 -210z m161 140 c24
-13 26 -72 3 -94 -8 -9 -31 -16 -50 -16 l-34 0 0 60 0 60 31 0 c17 0 39 -5 50
-10z"/>
<path d="M8100 2330 l0 -210 114 0 c109 0 114 1 120 23 3 12 6 25 6 30 0 4
-36 7 -80 7 l-80 0 0 65 0 65 70 0 70 0 0 30 0 30 -70 0 -70 0 0 55 0 55 75 0
75 0 0 30 0 30 -115 0 -115 0 0 -210z"/>
<path d="M8692 2367 c4 -194 11 -217 73 -243 74 -30 157 -6 187 56 15 29 18
63 18 198 l0 162 -40 0 -40 0 0 -163 c0 -186 -5 -201 -60 -195 -53 5 -60 29
-60 206 l0 152 -41 0 -41 0 4 -173z"/>
<path d="M9040 2330 l0 -210 35 0 35 0 1 168 c1 184 5 182 40 -30 l22 -138 37
0 36 0 27 143 c15 78 27 150 27 159 0 9 3 19 8 21 4 3 6 -69 4 -159 l-3 -164
40 0 41 0 0 210 0 210 -59 0 -58 0 -22 -102 c-12 -57 -24 -120 -28 -141 -3
-21 -7 -36 -9 -34 -2 2 -13 55 -24 118 -31 176 -21 159 -90 159 l-60 0 0 -210z"/>
<path d="M9470 2330 l0 -210 109 0 c90 0 110 3 115 16 15 39 8 43 -71 46 l-78
3 0 60 0 60 73 3 72 3 0 29 0 29 -72 3 -73 3 0 50 0 50 73 3 72 3 0 29 0 30
-110 0 -110 0 0 -210z"/>
<path d="M6950 2453 l0 -46 183 5 c100 3 178 4 172 1 -5 -2 -86 -32 -180 -67
l-170 -63 -3 -57 -3 -56 271 0 270 0 0 46 0 45 -189 -3 c-104 -2 -187 -1 -185
2 3 2 87 34 187 70 l182 66 3 52 3 52 -270 0 -271 0 0 -47z"/>
<path d="M2770 2254 l0 -155 37 3 37 3 -3 53 -2 52 215 0 216 0 0 45 0 45
-212 2 -213 3 -3 53 -3 52 -35 0 -34 0 0 -156z"/>
<path d="M6265 2380 c-173 -21 -248 -82 -248 -205 0 -121 82 -184 268 -206 73
-9 122 -9 198 0 189 21 267 82 267 206 0 123 -80 186 -261 205 -104 11 -135
11 -224 0z m349 -109 c53 -26 82 -74 70 -114 -10 -35 -55 -76 -93 -87 -121
-35 -347 -30 -436 9 -58 26 -82 73 -65 127 25 74 94 94 310 91 151 -2 169 -4
214 -26z"/>
<path d="M3190 2076 l0 -86 -210 0 -210 0 0 -45 0 -45 250 0 250 0 0 125 c0
112 -2 125 -17 125 -10 0 -28 3 -40 6 -23 6 -23 5 -23 -80z"/>
<path d="M6950 1955 l0 -165 40 0 39 0 3 58 3 57 228 3 227 2 0 45 0 45 -227
2 -228 3 -3 58 -3 57 -39 0 -40 0 0 -165z"/>
<path d="M6118 1860 c-20 -11 -47 -34 -60 -52 -21 -30 -23 -46 -26 -165 l-4
-133 356 0 356 0 0 40 0 40 -155 0 -155 0 0 74 c0 41 -5 87 -11 103 -14 38
-57 83 -96 99 -48 21 -160 17 -205 -6z m186 -72 c39 -17 57 -53 63 -129 l6
-69 -142 0 -141 0 0 63 c0 69 24 121 63 137 32 13 122 12 151 -2z"/>
<path d="M2770 1776 l0 -46 179 0 c221 0 250 -9 251 -72 0 -52 -24 -58 -237
-58 l-193 0 0 -45 0 -45 201 0 c225 0 257 7 286 64 22 42 22 132 0 173 -32 61
-59 68 -284 71 l-203 3 0 -45z"/>
<path d="M7052 1750 c-78 -18 -102 -67 -102 -205 l0 -105 270 0 270 0 0 45 0
45 -115 0 -115 0 0 43 c0 62 20 77 102 77 36 0 80 3 97 6 29 6 31 9 31 50 l0
44 -82 0 c-95 0 -148 -12 -172 -39 -16 -18 -18 -18 -46 10 -16 17 -39 29 -53
29 -14 0 -31 2 -39 4 -7 2 -28 0 -46 -4z m103 -115 c18 -18 25 -35 25 -65 l0
-40 -75 0 -75 0 0 49 c0 40 4 53 22 65 33 23 75 20 103 -9z"/>
<path d="M2882 1426 c-89 -29 -112 -70 -112 -201 l0 -95 251 0 251 0 -4 93
c-5 111 -23 150 -88 186 -37 21 -60 25 -149 28 -72 2 -120 -2 -149 -11z m228
-87 c60 -14 80 -33 80 -81 l0 -38 -175 0 -175 0 0 34 c0 65 50 94 165 95 33 0
80 -4 105 -10z"/>
<path d="M6110 1368 c-67 -35 -79 -68 -81 -218 l-1 -125 356 -3 356 -2 0 40 0
40 -165 0 -165 0 0 55 c0 71 21 122 56 135 15 6 82 13 150 17 l124 6 0 39 0
39 -132 -7 c-146 -7 -188 -19 -214 -59 l-17 -27 -14 26 c-34 64 -167 87 -253
44z m174 -68 c39 -15 58 -54 64 -130 l5 -70 -132 0 -131 0 0 59 c0 75 15 118
49 136 30 16 108 19 145 5z"/>
<path d="M7208 1328 l-258 -61 0 -64 c0 -35 2 -63 4 -63 2 0 120 -27 262 -60
142 -33 261 -60 266 -60 13 0 9 90 -4 95 -7 2 -39 9 -71 15 l-58 12 3 61 3 62
68 14 67 14 0 49 c0 32 -4 48 -12 47 -7 0 -129 -28 -270 -61z m62 -129 c0 -21
-4 -39 -9 -39 -10 0 -153 28 -191 37 -18 4 4 12 80 28 58 12 108 20 113 18 4
-2 7 -22 7 -44z"/>
<path d="M3015 1031 l-240 -57 -3 -60 -3 -60 228 -52 c125 -29 238 -55 251
-58 20 -6 22 -3 22 39 l0 45 -65 13 -65 13 0 57 0 57 63 14 62 13 3 48 c2 26
-1 47 -5 46 -4 -1 -116 -27 -248 -58z m45 -122 c0 -38 -2 -41 -23 -35 -12 3
-47 10 -77 16 -110 22 -110 22 -20 40 125 26 120 27 120 -21z"/>
<path d="M7022 1010 c-58 -36 -72 -72 -72 -187 l0 -103 270 0 270 0 0 45 0 45
-109 0 -109 0 -4 58 c-5 72 -24 110 -67 139 -45 30 -132 32 -179 3z m152 -102
c9 -12 16 -39 16 -60 l0 -38 -80 0 -80 0 0 42 c0 58 21 78 81 78 38 0 51 -5
63 -22z"/>
<path d="M6256 898 c-91 -10 -176 -46 -205 -87 -44 -62 -46 -163 -3 -220 56
-76 148 -105 337 -105 117 0 151 3 210 22 112 36 155 86 155 185 0 126 -76
186 -262 206 -108 12 -120 12 -232 -1z m359 -108 c94 -49 95 -144 1 -189 -95
-46 -359 -47 -461 -2 -58 26 -82 74 -65 127 24 73 98 94 315 91 150 -2 164 -4
210 -27z"/>
<path d="M6148 390 c-86 -26 -131 -86 -131 -175 0 -93 57 -159 167 -191 49
-15 92 -19 221 -18 140 1 167 3 217 23 60 23 113 73 124 117 12 48 -1 139 -25
172 -27 39 -88 72 -138 75 -35 2 -36 1 -36 -33 -1 -32 2 -35 44 -47 57 -17 89
-53 89 -102 0 -81 -62 -114 -232 -126 -165 -12 -319 21 -348 74 -5 11 -10 37
-10 58 0 50 27 80 86 95 42 12 44 14 44 50 0 33 -3 38 -22 37 -13 0 -35 -4
-50 -9z"/>
</g>
</svg>
