<?xml version="1.0" standalone="no"?>
<!DOCTYPE svg PUBLIC "-//W3C//DTD SVG 20010904//EN"
 "http://www.w3.org/TR/2001/REC-SVG-20010904/DTD/svg10.dtd">
<svg version="1.0" xmlns="http://www.w3.org/2000/svg"
 width="1280.000000pt" height="778.000000pt" viewBox="0 0 1280.000000 778.000000"
 preserveAspectRatio="xMidYMid meet">
<metadata>
Created by potrace 1.15, written by Peter Selinger 2001-2017
</metadata>
<g transform="translate(0.000000,778.000000) scale(0.100000,-0.100000)"
fill="#000000" stroke="none">
<path d="M1388 7765 c-623 -89 -1168 -501 -1337 -1010 -121 -366 -18 -739 292
-1057 130 -132 322 -254 574 -364 137 -59 435 -164 469 -164 20 0 18 -8 -11
-42 -100 -118 -182 -363 -221 -653 -22 -172 -22 -515 0 -723 42 -391 136 -748
263 -996 l35 -68 -23 -24 c-20 -21 -22 -34 -21 -111 1 -149 39 -228 134 -283
71 -40 166 -54 303 -46 126 7 163 13 450 68 589 112 803 105 943 -31 81 -79
115 -196 115 -396 -1 -149 -9 -229 -63 -590 -59 -394 -64 -446 -64 -635 0
-211 20 -302 88 -404 61 -90 138 -125 361 -165 347 -61 728 -44 888 41 77 41
99 76 94 145 -5 71 -42 122 -115 161 -84 44 -141 53 -407 62 -346 12 -386 29
-439 190 -59 180 -47 351 59 801 80 338 104 470 112 605 13 219 -45 411 -161
532 -185 195 -549 320 -1034 353 -169 12 -173 13 -167 33 3 12 18 73 31 136
35 156 44 477 20 650 -9 63 -16 117 -16 122 0 4 30 -6 68 -21 183 -75 382
-111 617 -111 303 0 567 60 818 186 162 82 308 209 358 310 33 69 37 152 10
204 l-21 41 21 22 c64 67 72 90 174 487 41 162 95 374 120 470 86 331 154 595
190 734 19 76 35 157 35 180 -1 88 -69 173 -156 195 -28 7 -228 11 -587 11
-515 0 -548 -1 -608 -20 -73 -22 -148 -76 -195 -137 -37 -48 -56 -104 -112
-323 -22 -85 -88 -342 -147 -571 l-108 -417 -50 -5 c-27 -4 -95 -22 -151 -41
-120 -41 -173 -51 -411 -71 -156 -13 -303 -33 -370 -50 -14 -3 -36 10 -73 43
l-54 48 79 -9 c113 -13 351 -1 460 22 399 86 511 362 318 783 -24 53 -28 57
-47 47 -78 -42 -359 31 -623 161 -134 66 -164 85 -149 100 20 20 268 119 859
340 828 310 855 323 855 387 0 49 -56 65 -347 98 -278 32 -328 40 -440 70 -93
25 -172 59 -226 99 -40 29 -77 96 -77 138 0 31 -10 46 -71 108 -175 176 -381
289 -626 340 -129 27 -354 34 -485 15z m1506 -3110 c-13 -89 35 -182 113 -221
35 -18 74 -19 497 -24 l459 -5 -100 -106 c-181 -193 -285 -276 -406 -327 -53
-22 -78 -26 -167 -26 -91 0 -113 3 -168 26 -100 41 -164 85 -289 196 -65 57
-165 138 -223 180 -281 203 -287 208 -324 272 -20 34 -36 63 -36 65 0 1 100 1
223 -2 122 -2 263 0 312 5 50 5 96 10 103 11 10 1 12 -10 6 -44z"/>
<path d="M11415 7509 c-252 -23 -473 -129 -675 -325 l-97 -94 -6 -60 c-9 -106
-83 -227 -202 -332 -22 -19 -101 -79 -175 -133 -236 -170 -274 -223 -220 -310
32 -52 47 -56 507 -150 177 -36 373 -78 437 -95 119 -31 272 -85 281 -100 21
-34 -339 -205 -530 -251 -88 -21 -176 -25 -205 -9 -16 9 -24 3 -50 -35 -77
-112 -115 -240 -98 -334 24 -137 168 -241 408 -292 87 -19 138 -23 297 -23
l193 -1 -38 -36 c-24 -24 -69 -50 -126 -73 -125 -50 -257 -127 -519 -303 -379
-254 -473 -309 -662 -390 -44 -19 -101 -48 -128 -64 -56 -34 -57 -34 -57 -11
0 26 -43 113 -76 151 -42 50 -1415 960 -1484 984 -90 31 -183 2 -234 -72 -29
-43 -391 -902 -407 -967 -22 -85 11 -205 76 -282 22 -26 1364 -929 1446 -972
35 -19 109 -28 152 -18 50 11 102 49 128 93 l19 32 68 -13 c93 -18 365 -18
482 1 250 41 521 141 720 269 60 38 70 35 70 -24 0 -43 23 -174 44 -257 9 -33
16 -66 16 -72 0 -7 -33 -11 -98 -11 -296 0 -669 -84 -889 -199 -276 -146 -379
-321 -376 -641 2 -162 22 -282 98 -599 89 -372 105 -469 105 -618 0 -157 -40
-301 -98 -356 -51 -48 -108 -59 -357 -68 -126 -5 -263 -16 -304 -24 -119 -23
-188 -67 -222 -140 -69 -149 52 -242 359 -276 272 -30 734 26 880 106 132 73
191 258 179 565 -7 160 -19 260 -83 680 -34 221 -38 265 -38 450 -1 168 2 215
16 259 35 108 86 171 173 214 87 43 131 51 285 51 156 0 234 -10 565 -74 110
-21 243 -45 295 -53 92 -15 81 -15 -328 -16 l-422 -1 2 -1032 3 -1033 325 0
325 0 3 673 2 672 485 0 485 0 0 -650 0 -650 330 0 330 0 0 1850 0 1850 -327
-2 -328 -3 -3 -837 -2 -838 -263 1 c-229 1 -257 3 -221 14 93 29 148 77 186
160 18 41 22 68 23 147 0 86 -2 100 -21 119 l-22 21 53 112 c114 240 196 558
241 926 21 176 24 587 6 730 -37 283 -103 492 -199 637 l-40 60 86 43 c124 61
215 124 310 215 548 524 578 1271 72 1776 -260 259 -598 388 -936 358z m-577
-3250 c-15 -45 -40 -122 -54 -171 -14 -49 -46 -126 -72 -171 -25 -45 -69 -134
-97 -197 -67 -151 -84 -183 -139 -258 -143 -194 -375 -244 -667 -143 -118 40
-269 104 -269 114 0 16 91 227 98 227 4 -1 18 -7 32 -15 46 -26 131 -19 218
20 191 84 542 321 872 589 58 47 105 85 106 86 1 0 -12 -37 -28 -81z"/>
<path d="M440 2040 l0 -1850 330 0 330 0 0 650 0 650 485 0 485 0 0 -670 0
-670 330 0 330 0 0 1030 0 1030 -815 0 -815 0 0 840 0 840 -330 0 -330 0 0
-1850z"/>
<path d="M6098 1743 l-308 -3 0 -800 0 -800 330 0 330 0 0 515 0 515 488 -2
487 -3 3 -532 2 -533 325 0 325 0 0 820 0 820 -802 0 c-442 0 -819 2 -838 3
-19 2 -173 2 -342 0z"/>
</g>
</svg>
